<svg width="30" height="28" viewBox="0 0 30 28" fill="none" xmlns="http://www.w3.org/2000/svg">
<path d="M14.1075 6.80856C15.6567 7.85153 17.0301 6.11481 16.8122 4.42262C16.7348 3.83903 16.5145 3.30465 16.1442 2.89684C15.5395 2.22653 14.2786 2.15622 13.8192 2.86403C13.0739 4.00309 12.7692 5.90622 14.1075 6.80856ZM9.84653 5.41872C11.4989 6.27184 12.7153 4.36872 12.3379 2.69762C12.209 2.12575 11.9372 1.61481 11.5293 1.25153C10.8614 0.651528 9.59575 0.733559 9.19731 1.49762C8.55278 2.72575 8.42622 4.67575 9.84653 5.41872ZM2.57622 5.16559C1.84028 4.70153 0.675438 5.25465 0.38247 6.10778C0.204345 6.62575 0.216063 7.20231 0.387157 7.76715C0.895751 9.40543 2.92778 10.4531 3.96138 8.89215C4.852 7.55622 3.76216 5.92028 2.57622 5.16559ZM7.2895 5.99762C8.2645 4.7859 7.35044 3.04215 6.26763 2.15153C5.59497 1.60309 4.42075 2.00153 4.06684 2.80778C3.85122 3.29293 3.81841 3.86715 3.93559 4.44372C4.28481 6.11715 6.16216 7.40622 7.2895 5.99762ZM14.3254 9.99137C13.8051 8.31559 11.9208 7.58903 10.6036 7.42262C8.6395 7.17653 6.50434 8.22184 5.53638 10.2843C5.14731 11.114 4.59653 12.5765 5.11919 13.5117C5.84106 14.7937 7.65513 13.9734 8.527 13.5093C9.56059 12.9492 10.3833 12.4547 11.5715 12.6445L11.6981 12.6656C13.2004 12.8601 15.0684 12.3726 14.3254 9.99137ZM15.9895 19.5047C15.2114 19.1742 14.2083 19.9382 14.0793 20.8312C14.002 21.3726 14.1168 21.9422 14.3793 22.4672C15.1411 23.9929 17.2504 24.6679 17.9536 22.9359C18.5583 21.4406 17.2411 20.032 15.9895 19.5047ZM20.7098 19.4039C21.4739 17.9953 20.2809 16.4484 19.0598 15.7875C18.3051 15.3773 17.2083 16.0148 16.9856 16.8867C16.852 17.414 16.9129 17.9906 17.1262 18.5367C17.745 20.1328 19.8168 21.0351 20.7098 19.4039ZM29.8692 16.0664C29.6934 15.5015 29.384 15.0187 28.9481 14.6859C28.2286 14.1422 26.9536 14.3343 26.602 15.1312C26.0395 16.4179 26.0465 18.3843 27.5348 18.9961C29.2622 19.7132 30.3637 17.707 29.8692 16.0664ZM23.1543 18.4547C24.8747 18.9937 25.7137 16.875 25.0668 15.2906C24.8442 14.7468 24.495 14.2875 24.045 14.0039C23.302 13.5351 22.1043 13.8586 21.8536 14.6906C21.4551 16.0359 21.6684 17.9929 23.1543 18.4547ZM27.0004 21.0304C25.0481 19.8609 22.6903 20.189 21.1997 21.4875C20.1989 22.3617 19.0434 24.014 19.5473 25.6968C20.2622 28.0875 22.0833 27.4476 23.2176 26.4468L23.3137 26.3578C24.1926 25.5398 25.1512 25.4882 26.3208 25.3781C27.3028 25.2773 29.2692 24.9422 29.1473 23.4773C29.0629 22.4062 27.7856 21.5015 27.0004 21.0304Z" fill="black"/>
</svg>
