<svg id="Layer_1" enable-background="new 0 0 64 64" viewBox="0 0 64 64" xmlns="http://www.w3.org/2000/svg"><g><path d="m59 36.7c0-.1 0-.2 0-.3 0-.2 0-.4 0-.6 0-.3-.1-.7-.1-1 0-.2-.1-.3-.1-.5 0-.3-.1-.5-.2-.8-.1-.2-.1-.5-.2-.7 0-.1 0-.1-.1-.2s-.1-.3-.2-.4c-.1-.2-.2-.4-.3-.7-.1-.2-.2-.4-.3-.6s-.2-.4-.3-.7c-.1-.2-.3-.5-.4-.7s-.3-.4-.4-.6-.3-.4-.4-.6-.3-.4-.4-.6c-.2-.2-.3-.4-.5-.6.3-.5.5-1 .7-1.6.1-.5.3-1.1.3-1.7.1-.4.1-.8.2-1.3 0-.3.1-.7.1-1 0-.1 0-.2 0-.3 0-.3 0-.6 0-.9v-.6c0-.4 0-.9 0-1.3 0-.2 0-.4 0-.6 0-2.5-.1-4.6-.1-4.6s-5.3-.9-10.6 1.9c-1.7.9-3 1.8-3.9 2.6-1.6-.5-3.2-1-4.9-1.3-1.6-.3-3.3-.4-5-.4s-3.4.2-5 .4c-1.7.3-3.3.7-4.9 1.3-.9-.8-2.2-1.7-3.9-2.6-5.3-2.8-10.6-1.9-10.6-1.9s-.1 2-.1 4.6v.6 1.3.6.9.3c0 .3.1.7.1 1 0 .4.1.9.2 1.3.1.6.2 1.2.3 1.7.2.6.4 1.1.7 1.6-.2.2-.3.4-.5.6-.1.2-.3.4-.4.6s-.3.4-.4.6-.3.4-.4.6c-.1.3-.3.5-.4.7s-.2.4-.3.7c-.1.2-.2.4-.3.6.1.1 0 .3 0 .5-.1.2-.1.3-.2.4 0 .1-.1.1-.1.2-.1.2-.2.5-.2.7-.1.3-.2.5-.2.8 0 .2-.1.3-.1.5-.1.3-.1.7-.2 1v.6.3.3c0 1 .1 2 .4 2.9 2.1 8.2 13.2 12.3 26.6 12.3s24.5-4.1 26.6-12.1c.3-.9.4-1.9.4-2.9 0-.1 0-.2 0-.3z" fill="#ffa255"/><path d="m34.6 32.1c-.8-.1-1.7-.1-2.6-.1s-1.8 0-2.6.1c-10.8.4-19.9 3.5-24 7.8 2.1 8 13.2 12.1 26.6 12.1s24.5-4.1 26.6-12.1c-4.1-4.3-13.2-7.4-24-7.8z" fill="#fff"/><path d="m56.1 23.6c-.9.2-2 .5-3.1.9-.1 0-.2.1-.3.1-1.5.5-3.1 1.3-4.7 2.3 0 0 3.2 1.3 7.6.7-.2-.2-.3-.4-.5-.6.3-.5.5-1 .7-1.6.1-.6.2-1.2.3-1.8zm2.9 12.8c0-.2 0-.4 0-.6 0-.3-.1-.7-.1-1 0-.2-.1-.3-.1-.5 0-.3-.1-.5-.2-.8-.1-.2-.1-.5-.2-.7-1.8-.8-5.2-2-9.4-2.2 0 0 2.8 4.9 10.1 6.2-.1-.2-.1-.3-.1-.4zm-47.7-11.8c-.1 0-.2-.1-.3-.1-1.2-.4-2.3-.7-3.1-.9.1.6.2 1.2.3 1.7.2.6.4 1.1.7 1.6-.2.2-.3.4-.5.6 4.4.6 7.6-.7 7.6-.7-1.6-1-3.2-1.7-4.7-2.2zm-5.6 8.1c-.1.2-.2.5-.2.7-.1.3-.2.5-.2.8 0 .2-.1.3-.1.5-.1.3-.1.7-.2 1v.6.3c7.3-1.3 10.1-6.2 10.1-6.2-4.1.3-7.6 1.5-9.4 2.3zm16.4-15c.9 2 2.2 3.9 4 5.3l.9-6.6c-1.7.3-3.4.7-4.9 1.3zm19.8 0c-1.6-.5-3.2-1-4.9-1.3l1 6.6c1.8-1.4 3-3.4 3.9-5.3z" fill="#ff7300"/><path d="m8.2 25.3c.2.6.4 1.1.7 1.6.1 0 5.1-4.9 5.1-4.9-3.1-5.2-5.2-8-6.4-8.8 0 0-.4 8.4.6 12.1z" fill="#fff"/><path d="m55.8 25.3c-.2.6-.4 1.1-.7 1.6-.1 0-5.1-4.9-5.1-4.9 3.1-5.2 5.2-8 6.4-8.8 0 0 .4 8.4-.6 12.1z" fill="#fff"/><g fill="none" stroke-miterlimit="10" stroke-width="2"><path d="m32 31v4" stroke="#333" stroke-linecap="round" stroke-linejoin="round"/><path d="m14 22c-2 1.5-3.7 3.1-5.1 4.9-2.5 3.1-3.9 6.7-3.9 10.1 0 1 .1 2 .4 2.9 2.1 8 13.2 12.1 26.6 12.1s24.5-4.1 26.6-12.1c.3-.9.4-1.9.4-2.9 0-3.4-1.4-7-3.9-10.1-1.4-1.8-3.1-3.5-5.1-4.9" stroke="#af5700"/><path d="m22.1 17.7c3.1-1.1 6.4-1.7 9.9-1.7s6.9.6 9.9 1.7" stroke="#af5700"/><path d="m30 27 .2-.1c1.1-.6 2.5-.6 3.6 0l.2.1" stroke="#af5700" stroke-linecap="round" stroke-linejoin="round"/><path d="m22.1 17.7c-.9-.8-2.2-1.7-3.9-2.7-5.3-2.8-10.6-1.9-10.6-1.9s-.4 8.4.7 12.2c.2.6.4 1.1.7 1.6" stroke="#af5700" stroke-linecap="round" stroke-linejoin="round"/><path d="m41.9 17.7c.9-.8 2.2-1.7 3.9-2.7 5.3-2.8 10.6-1.9 10.6-1.9s.4 8.4-.7 12.2c-.2.6-.4 1.1-.6 1.6" stroke="#af5700" stroke-linecap="round" stroke-linejoin="round"/><path d="m12 19 2 3" stroke="#af5700" stroke-linecap="round" stroke-linejoin="round"/><path d="m50 22 2-3" stroke="#af5700" stroke-linecap="round" stroke-linejoin="round"/></g><g><path d="m26.5 40c-3.6 0-6.5-2.7-6.5-6 0-.6.4-1 1-1s1 .4 1 1c0 2.2 2 4 4.5 4s4.5-1.8 4.5-4c0-.6.4-1 1-1s1 .4 1 1c0 3.3-2.9 6-6.5 6z" fill="#333"/></g><g><path d="m37.1 38c-.1.3-.1.5-.2.8-.1.4-.3.8-.5 1.2-.5-.1-.9-.2-1.3-.3-1.3-.5-2.4-1.3-3.1-2.4-.6-.9-1-2-1-3.2 0-.5.4-1 1-1 .5 0 1 .5 1 1 0 1.7 1.2 3.2 2.9 3.7.4.1.8.2 1.2.2z" fill="#333"/></g><path d="m34.7 32-1.8 1.6c-.3.3-.6.4-.9.4s-.6-.1-.8-.4l-1.9-1.6c-.6-.5-.3-1.5.5-1.7l.9-.2c.9-.3 1.8-.3 2.6 0l.9.2c.8.2 1.1 1.2.5 1.7z" fill="#1a1a1a"/><path d="m43.2 36.8c-.5.9-1.4 1.7-2.4 2.3-1 .5-2.1.9-3.4.9-.3 0-.7 0-1-.1.2-.4.3-.8.5-1.2.3-.9.5-1.8.6-2.7s.2-1.8.2-2.7c.1-.7.2-1.5.6-2.1.7-1.1 2.1-1.5 3.4-1.2.5.1 1 .4 1.4.7.5.6.7 1.4.7 2.2 0 .7-.2 1.3-.2 2 0 .8-.1 1.4-.4 1.9z" fill="#ff1d25"/><path d="m18 29c3-2.2 5.8-3.1 8 0" style="fill:none;stroke:#1a1a1a;stroke-width:2;stroke-linecap:round;stroke-linejoin:round;stroke-miterlimit:10"/><path d="m46 29c-3-2.2-5.8-3.1-8 0" style="fill:none;stroke:#1a1a1a;stroke-width:2;stroke-linecap:round;stroke-linejoin:round;stroke-miterlimit:10"/></g></svg>