<?xml version="1.0" encoding="utf-8"?>
<!-- Generator: Adobe Illustrator 28.2.0, SVG Export Plug-In . SVG Version: 6.00 Build 0)  -->
<svg version="1.1" id="Capa_1" xmlns="http://www.w3.org/2000/svg" xmlns:xlink="http://www.w3.org/1999/xlink" x="0px" y="0px"
	 viewBox="0 0 512 512" style="enable-background:new 0 0 512 512;" xml:space="preserve">
<style type="text/css">
	.st0{fill:#7D88E6;}
	.st1{fill:#F0900C;}
	.st2{fill:#F6B152;}
	.st3{fill:#3D4ED9;}
	.st4{fill:#F6AA41;}
	.st5{fill:#A18A9C;}
	.st6{fill:none;}
</style>
<g>
	<g>
		<path class="st0" d="M41.8,227.2c-4.3,0-7.7-3.5-7.7-7.7V79.9c0-39.5,32.1-71.6,71.6-71.6h32.6c4.3,0,7.7,3.5,7.7,7.7
			s-3.5,7.7-7.7,7.7h-32.6c-31,0-56.1,25.2-56.1,56.1v139.6C49.5,223.7,46,227.2,41.8,227.2L41.8,227.2z"/>
	</g>
	<g>
		<path class="st0" d="M342.1,227.2c-4.3,0-7.7-3.5-7.7-7.7V79.9c0-31-25.2-56.1-56.1-56.1h-32.6c-4.3,0-7.7-3.5-7.7-7.7
			s3.5-7.7,7.7-7.7h32.6c39.5,0,71.6,32.1,71.6,71.6v139.6C349.9,223.7,346.4,227.2,342.1,227.2z"/>
	</g>
	<circle class="st1" cx="144" cy="16" r="16"/>
	<circle class="st1" cx="239.9" cy="16" r="16"/>
	<g>
		<g>
			<path class="st2" d="M175.6,92.6c3.7,13.7,0.8,27-6.3,33.3l-7.8-1.9c-11.4,3.1-19.4-3.7-24-20.8s-1-26.6,10.4-29.6
				c4.9-1.3,13.4-3.1,13.4-3.1C167.4,74.8,173,82.9,175.6,92.6L175.6,92.6z"/>
			<path class="st2" d="M209.5,92.8c-4.6,17.1,0.4,26.4,11.8,29.5c4.8,1.3,14.3,3.6,14.3,3.6c6.3-4.4,11.7-12.4,14.4-22.2
				c3.7-13.7,0.8-27-6.3-33.3c0,0-4.9,1.4-7.2,0.8C225,68.1,214,75.7,209.5,92.8L209.5,92.8z"/>
			<path class="st2" d="M118.5,131.8c5.5,9.5,5.8,20,1.5,25.8c0,0-5.8-1.6-7.1-0.9c-7.6,4.4-12.8-0.5-19.4-12s-6.3-15.2,1.3-19.6
				c4.9-2.8,15.2-3.2,15.2-3.2C113.1,124.3,116.1,127.7,118.5,131.8L118.5,131.8z"/>
			<path class="st2" d="M268.4,135.5c-6.6,11.5-7.2,16.7,0.5,21.1c4.9,2.9,15.9,1,15.9,1c3.2-2.4,6.2-5.8,8.5-9.9
				c5.5-9.5,5.8-20,1.5-25.8c0,0-6.5,0.3-7.9-0.5C279.3,117,275,124,268.4,135.5L268.4,135.5z"/>
		</g>
		<path class="st2" d="M140,244.5c3.7-0.1,11.5,1.6,11.5,1.6c6.2-1.7,11.8-4.7,16.6-8.8c14.5-10.7,33.5-10.7,48,0
			c7.5,6.4,16.9,10,27.3,10.4c28.3,0,31.8-32.4,23.6-49.3c-7.4-13.6-17.8-25-30.2-33.1l0,0c-10.7-7-22.5-11.3-34.5-12.9
			c-18.9-2.5-35.9,5-52.8,16.1c-12.4,8.1-19.2,15.9-26.7,29.5C114.6,214.1,111.9,244.5,140,244.5L140,244.5z"/>
	</g>
	<g>
		<path class="st1" d="M154.9,103.7c-3.7-13.8-0.9-27,6.3-33.3c-4.6-3.2-9.8-4.5-14.6-3.3c-11.4,3.1-16.9,19.4-12.3,36.6
			c4.6,17.1,17.6,28.5,29,25.5c2.2-0.6,4.3-1.7,6-3.3C163,121.5,157.5,113.6,154.9,103.7z"/>
		<path class="st1" d="M229.2,92.6c2.6-9.9,8.1-17.8,14.4-22.2c-1.8-1.5-3.8-2.7-6-3.3c-11.4-3.1-24.4,8.4-29,25.5
			c-4.6,17.1,0.9,33.5,12.3,36.6c4.8,1.3,9.9,0,14.6-3.3C228.3,119.7,225.5,106.4,229.2,92.6z"/>
		<path class="st1" d="M111.4,147.7c-5.5-9.5-5.9-20-1.5-25.8c-5.8-4.4-12.4-5.8-17.3-2.9c-7.6,4.4-8.5,17.3-1.8,28.8
			c6.6,11.5,18.2,17.2,25.8,12.8c1.3-0.8,2.4-1.7,3.3-2.9C116.7,155.2,113.8,151.8,111.4,147.7z"/>
		<path class="st1" d="M286.3,131.8c2.4-4.1,5.3-7.4,8.5-9.9c-0.9-1.2-2-2.2-3.3-2.9c-7.6-4.4-19.2,1.3-25.8,12.8
			c-6.6,11.5-5.8,24.4,1.8,28.8c4.9,2.8,11.5,1.5,17.3-2.9C280.4,151.8,280.8,141.3,286.3,131.8z"/>
		<path class="st1" d="M137.7,198.4c7.4-13.6,17.8-25,30.2-33.1c10.7-7,22.5-11.3,34.5-12.9c-18.8-2.5-38.2,1.8-55.1,12.9
			c-12.4,8.1-22.8,19.5-30.2,33.1c-8.3,16.2-4.5,49.3,23.6,49.3c3.7-0.1,7.3-0.7,10.7-1.6C132.5,239.2,130.5,212.4,137.7,198.4
			L137.7,198.4z"/>
	</g>
	<path class="st3" d="M336,383.8c-35.2,0-63.9,28.6-64.1,63.8c-0.1,17.5-14.1,32-31.5,32.2c-17.7,0.2-32.2-14.2-32.2-31.9v-70
		c0-14.7,10-27.3,24.2-31c47.8-12.3,88.2-46.1,108.3-92.9l10.2-23.7c3.5-8.2-0.3-17.7-8.5-21.2c-8.2-3.5-17.7,0.3-21.2,8.5
		l-9.6,22.5c-20.7,48.3-68.1,80.1-120.6,79.7c-51.4-0.4-97.6-31.1-117.8-78.4l-10.2-23.7c-3.6-8.4-13.5-12.2-21.9-8.1
		c-7.8,3.8-11,13.3-7.6,21.3l10,23.3c20.1,46.8,60.4,80.6,108.3,92.9c14.2,3.7,24.2,16.3,24.2,31v69c0,35.7,28.7,65.2,64.3,65.1
		c35.1-0.1,63.7-28.7,63.9-63.8c0.1-17.7,14.1-32.1,31.8-32.1h64.2v-32.2L336,383.8z"/>
	<path class="st1" d="M388.2,399.9c0,26.5,13.6,43.7,40.1,43.7c5.5,0,19.1,1.8,19.1,1.8c18.8-6.5,32.5-24.4,32.5-45.4
		c0-21.1-13.6-39-32.5-45.4c0,0-10.3,1-15.7,1C405.1,355.5,388.2,373.4,388.2,399.9L388.2,399.9z"/>
	<path class="st4" d="M414.8,399.9c0-21.1,13.6-39,32.5-45.4c-4.8-1.6-10-2.5-15.4-2.5c-26.5,0-48,21.5-48,48c0,26.5,21.5,48,48,48
		c5.4,0,10.6-0.9,15.4-2.5C428.4,438.9,414.8,421,414.8,399.9L414.8,399.9z"/>
	<circle class="st5" cx="431.9" cy="399.9" r="16"/>
	<line class="st6" x1="534" y1="578" x2="534" y2="577"/>
</g>
</svg>
