<svg height="512" viewBox="0 0 64 64" width="512" xmlns="http://www.w3.org/2000/svg"><g id="flat"><path d="m57.6 36.325a9.238 9.238 0 0 0 -1.045-1.272 8.681 8.681 0 0 1 -2.608-6.59c.037-.584.056-1.1.056-1.463a10.928 10.928 0 0 0 -1.568-5.561c4.446-6.21 2.565-18.439 2.565-18.439-4.85.808-12.31 7.494-14.994 10.029a31.726 31.726 0 0 0 -15.224-.2c-2.845-2.667-10.054-9.041-14.782-9.829 0 0-1.73 11.26 2.063 17.658a11.144 11.144 0 0 0 -2.063 6.342c0 .361.019.879.056 1.463a8.681 8.681 0 0 1 -2.608 6.59 9.31 9.31 0 0 0 -.964 1.155l1.516 6.792 48 1z" fill="#f9bb4b"/><path d="m32 61c14.912 0 27-11.163 27-20a7.72 7.72 0 0 0 -1.4-4.675 13.444 13.444 0 0 1 -8.6 3.675c-7.518 0-8.407-7-17-7s-9.482 7-17 7c-3.556 0-6.464-2.009-8.516-3.792a8.134 8.134 0 0 0 -1.484 4.792c0 8.837 12.088 20 27 20z" fill="#f4f4e6"/><path d="m32 52a4 4 0 0 0 4-4v-1c-2.761 0-4-1.343-4-3 0 1.657-1.239 3-4 3v1a4 4 0 0 0 4 4z" fill="#f98c96"/><path d="m31 45h2v4h-2z" fill="#db527d"/><path d="m40 44c0 .944-1.711 2-4 2-1.12 0-3-.26-3-2h-2c0 1.74-1.88 2-3 2-2.289 0-4-1.056-4-2h-2c0 2.243 2.636 4 6 4a5.2 5.2 0 0 0 4-1.449 5.2 5.2 0 0 0 4 1.449c3.364 0 6-1.757 6-4z" fill="#394d5c"/><path d="m25 25c0 1.1-1.343 1-3 1a3.428 3.428 0 0 1 -3-3c0-1.105 1.343-1 3-1a3.427 3.427 0 0 1 3 3z" fill="#f4f4e6"/><path d="m23.448 31.834a14.62 14.62 0 0 0 -7.448-1.834v-2a16.314 16.314 0 0 1 8.555 2.168z" fill="#143441"/><path d="m39 25c0 1.1 1.343 1 3 1a3.428 3.428 0 0 0 3-3c0-1.105-1.343-1-3-1a3.427 3.427 0 0 0 -3 3z" fill="#f4f4e6"/><path d="m40.552 31.834-1.107-1.666a16.314 16.314 0 0 1 8.555-2.168v2a14.62 14.62 0 0 0 -7.448 1.834z" fill="#143441"/><path d="m22 16a75.087 75.087 0 0 0 -8-7 35 35 0 0 0 2 10z" fill="#d3843d"/><path d="m43 16a75.087 75.087 0 0 1 8-7 35 35 0 0 1 -2 10z" fill="#d3843d"/><path d="m36 39a4.406 4.406 0 0 1 -4 4 4.406 4.406 0 0 1 -4-4c0-1.657 1.791-2 4-2s4 .343 4 2z" fill="#143441"/></g></svg>