<?xml version="1.0" encoding="utf-8"?>
<!-- Generator: Adobe Illustrator 28.2.0, SVG Export Plug-In . SVG Version: 6.00 Build 0)  -->
<svg version="1.1" id="Layer_1" xmlns="http://www.w3.org/2000/svg" xmlns:xlink="http://www.w3.org/1999/xlink" x="0px" y="0px"
	 viewBox="0 0 512 512" style="enable-background:new 0 0 512 512;" xml:space="preserve">
<style type="text/css">
	.st0{fill:#3D4ED9;}
	.st1{fill:#2130A8;}
	.st2{fill:#F1F2F2;}
	.st3{fill:#FFFFFF;}
	.st4{fill:#E6E7E8;}
	.st5{fill:#D1D3D4;}
	.st6{fill:#F0900C;}
	.st7{fill:#D8810B;}
	.st8{fill:#414042;}
	.st9{fill:#FFC91D;}
</style>
<g>
	<g>
		<path class="st0" d="M419.2,195.6v-34.2c0-5.3-4.3-9.5-9.5-9.5h-23c-3.5-17-10.2-32.8-19.4-46.8l16.3-16.3c3.7-3.7,3.7-9.8,0-13.5
			L359.3,51c-3.7-3.7-9.8-3.7-13.5,0l-16.3,16.3c-14-9.3-29.8-16-46.8-19.4v-23c0-5.3-4.3-9.5-9.5-9.5h-34.2c-5.3,0-9.5,4.3-9.5,9.5
			v23c-17,3.5-32.8,10.2-46.8,19.4L166.2,51c-3.7-3.7-9.8-3.7-13.5,0l-24.2,24.2c-3.7,3.7-3.7,9.8,0,13.5l16.3,16.3
			c-9.3,14-16,29.8-19.4,46.8h-23c-5.3,0-9.5,4.3-9.5,9.5v34.2c0,5.3,4.3,9.5,9.5,9.5h23.1c3.5,17,10.2,32.8,19.4,46.8l-16.3,16.3
			c-3.7,3.7-3.7,9.8,0,13.5l24.2,24.2c3.7,3.7,9.8,3.7,13.5,0l16.3-16.3c14,9.3,29.8,16,46.8,19.4v23c0,5.3,4.3,9.5,9.5,9.5h34.2
			c5.3,0,9.5-4.3,9.5-9.5v-23c17-3.5,32.8-10.2,46.8-19.4l16.3,16.3c3.7,3.7,9.8,3.7,13.5,0l24.2-24.2c3.7-3.7,3.7-9.8,0-13.5
			L367.2,252c9.3-14,16-29.8,19.4-46.8h23C415,205.1,419.2,200.9,419.2,195.6z M256,256.5c-43.1,0-78-34.9-78-78
			c0-43.1,34.9-78,78-78s78,34.9,78,78S299.1,256.5,256,256.5z"/>
	</g>
	<g>
		<g>
			<path class="st1" d="M409.7,151.8h-0.5v33.8c0,5.3-4.3,9.5-9.5,9.5h-23c-3.5,17-10.2,32.8-19.4,46.8l10,10
				c9.3-14,16-29.8,19.4-46.8h23c5.3,0,9.5-4.3,9.5-9.5v-34.2C419.2,156.1,415,151.8,409.7,151.8z"/>
		</g>
		<g>
			<path class="st1" d="M373.5,258.3c3.7,3.7,3.7,9.8,0,13.5L349.3,296c-3.7,3.7-9.8,3.7-13.5,0l10,10c3.7,3.7,9.8,3.7,13.5,0
				l24.2-24.2c3.7-3.7,3.7-9.8,0-13.5L373.5,258.3z"/>
		</g>
		<g>
			<path class="st1" d="M272.7,299.1v23c0,5.3-4.3,9.5-9.5,9.5h-33.8v0.5c0,5.3,4.3,9.5,9.5,9.5h34.2c5.3,0,9.5-4.3,9.5-9.5v-23
				c17-3.5,32.8-10.2,46.8-19.4l-10-10C305.5,289,289.7,295.7,272.7,299.1z"/>
		</g>
	</g>
	<g>
		<circle class="st2" cx="256" cy="178.5" r="78"/>
	</g>
	<g>
		<path class="st3" d="M194.2,159.2c-0.5,0-0.9-0.1-1.4-0.3c-2.1-0.8-3.1-3.1-2.3-5.2c7.4-19.6,23-34.7,42.7-41.5
			c2.1-0.7,4.4,0.4,5.1,2.5c0.7,2.1-0.4,4.4-2.5,5.1c-17.5,6-31.3,19.4-37.8,36.8C197.3,158.2,195.8,159.2,194.2,159.2z
			 M250.1,116.7c-2.1,0-3.8-1.6-4-3.7c-0.2-2.2,1.4-4.1,3.6-4.3l1.2-0.1c2.2-0.2,4.1,1.5,4.3,3.7c0.2,2.2-1.5,4.1-3.7,4.3l-1.2,0.1
			C250.3,116.7,250.2,116.7,250.1,116.7L250.1,116.7z"/>
	</g>
	<g>
		<path class="st4" d="M300.3,114.2c8.7,12.6,13.8,27.8,13.8,44.3c0,43.1-34.9,78-78,78c-16.4,0-31.7-5.1-44.3-13.8
			c14.1,20.4,37.6,33.8,64.3,33.8c43.1,0,78-34.9,78-78C334,151.8,320.7,128.3,300.3,114.2z"/>
	</g>
	<g>
		<path class="st5" d="M305.9,118.5c11.3,13.5,18.1,30.9,18.1,49.9c0,43.1-34.9,78-78,78c-19,0-36.4-6.8-49.9-18.1
			c14.3,17.2,35.9,28.1,59.9,28.1c43.1,0,78-34.9,78-78C334,154.4,323.1,132.9,305.9,118.5z"/>
	</g>
	<g>
		<path class="st6" d="M249.1,269.3l-53.8,63.9c-2.8,3.3-4.3,7.4-4.3,11.7v140.1c0,6.5,5.3,11.8,11.8,11.8h106.4
			c6.5,0,11.8-5.3,11.8-11.8V344.8c0-4.3-1.5-8.4-4.3-11.7l-53.8-63.9C259.3,265,252.7,265,249.1,269.3L249.1,269.3z"/>
	</g>
	<g>
		<circle class="st7" cx="256" cy="328.5" r="15"/>
	</g>
	<g>
		<circle class="st8" cx="256" cy="328.5" r="10"/>
	</g>
	<g>
		<path class="st9" d="M236,174.5h-57.9c-0.1,1.3-0.1,2.7-0.1,4s0,2.7,0.1,4H236c8.8,0,16,7.2,16,16v130c0,2.2,1.8,4,4,4
			c2.2,0,4-1.8,4-4v-130C260,185.3,249.2,174.5,236,174.5z"/>
	</g>
	<g>
		<path class="st7" d="M316.7,333.1l-9-10.6c2.1,3,3.2,6.6,3.2,10.3v140.1c0,6.5-5.3,11.8-11.8,11.8H192.8c-0.6,0-1.2-0.1-1.8-0.2
			v0.3c0,6.5,5.3,11.8,11.8,11.8h106.4c6.5,0,11.8-5.3,11.8-11.8V344.8C321,340.5,319.5,336.4,316.7,333.1L316.7,333.1z"/>
	</g>
	<path class="st3" d="M262.4,410.6H260v-24h2.4c6.6,0,12,5.4,12,12c0,2.2,1.8,4,4,4s4-1.8,4-4c0-11-9-20-20-20H260v-2.4
		c0-2.2-1.8-4-4-4s-4,1.8-4,4v2.4h-2.4c-11,0-20,9-20,20c0,11,9,20,20,20h2.4v30.5h-2.4c-6.6,0-12-5.4-12-12c0-2.2-1.8-4-4-4
		s-4,1.8-4,4c0,11,9,20,20,20h2.4v2.4c0,2.2,1.8,4,4,4c2.2,0,4-1.8,4-4v-2.4h2.4c11,0,20-9,20-20v-6.4
		C282.4,419.6,273.5,410.6,262.4,410.6z M249.6,410.6c-6.6,0-12-5.4-12-12s5.4-12,12-12h2.4v24L249.6,410.6L249.6,410.6z
		 M274.4,437.1c0,6.6-5.4,12-12,12H260v-30.5h2.4c6.6,0,12,5.4,12,12V437.1z"/>
</g>
</svg>
