<?xml version="1.0" encoding="utf-8"?>
<!-- Generator: Adobe Illustrator 28.2.0, SVG Export Plug-In . SVG Version: 6.00 Build 0)  -->
<svg version="1.1" id="Layer_1" xmlns="http://www.w3.org/2000/svg" xmlns:xlink="http://www.w3.org/1999/xlink" x="0px" y="0px"
	 viewBox="0 0 512 512" style="enable-background:new 0 0 512 512;" xml:space="preserve">
<style type="text/css">
	.st0{fill:#CFDCE5;}
	.st1{fill:#3D4ED9;}
	.st2{fill:#F7F5FB;}
	.st3{fill:#F0900C;}
	.st4{fill:#BAC5CB;}
	.st5{fill:#2130A8;}
</style>
<g id="_28_Pets_Allowed">
	<path class="st0" d="M434,308.4V424c0,23.3-18.9,42.1-42.1,42.1l0,0H120.1C96.9,466.1,78,447.3,78,424l0,0V308.4l58.3-48.9
		c2,0.1,4.1,0.2,6.1,0.2c49.7,0,90-29.8,90-66.5c0-4.4-0.6-8.7-1.7-12.9l11.2-9.4c8.1-6.8,20-6.8,28.1,0L434,308.4z"/>
	<path class="st1" d="M483.2,308.3c-11.3,13.4-31.3,15.2-44.8,3.9L270.1,170.9c-8.1-6.8-20-6.8-28.1,0l-11.2,9.4
		c-1.3-4.7-3.2-9.2-5.6-13.5c24.6-3.7,41.5-26.6,37.9-51.1c-1.7-11.2-7.5-21.3-16.3-28.4c3-0.9,6.1-1.4,9.2-1.4h0.2
		c7.5,0,14.7,2.6,20.4,7.4l202.8,170.2C492.7,274.8,494.5,294.8,483.2,308.3C483.2,308.3,483.2,308.3,483.2,308.3z"/>
	<path class="st1" d="M136.3,259.5l-62.8,52.7c-13.3,11.4-33.4,10-44.8-3.3c-11.4-13.3-10-33.4,3.3-44.8c0.2-0.2,0.4-0.4,0.6-0.5
		l37.1-31.1C85,247.8,109,258.2,136.3,259.5L136.3,259.5z"/>
	<path class="st1" d="M312.6,466.1H199.3V336.2c0-9.2,7.4-16.6,16.6-16.6c0,0,0,0,0,0h80c9.2,0,16.6,7.4,16.6,16.6L312.6,466.1z"/>
	<path class="st2" d="M263.5,122.3c0-24.9-20.2-45-45.1-44.9c-11.5,0-22.6,4.4-30.9,12.4c-0.8-24.8-21.6-44.3-46.5-43.5
		c-23.7,0.8-42.7,19.8-43.5,43.5c-18-17.2-46.5-16.5-63.6,1.5s-16.5,46.5,1.5,63.6c6.7,6.4,15.3,10.6,24.5,12
		c-4.8,8-7.3,17.1-7.3,26.4c0,36.7,40.3,66.5,90,66.5s90-29.8,90-66.5c-0.1-9.3-2.6-18.4-7.4-26.4
		C247.2,163.5,263.5,144.6,263.5,122.3z"/>
	<g>
		<ellipse class="st3" cx="142.4" cy="189.1" rx="68.3" ry="50.5"/>
		<circle class="st3" cx="142.4" cy="97.2" r="30.5"/>
		<circle class="st3" cx="210.8" cy="125.4" r="30.5"/>
		<circle class="st3" cx="74.1" cy="125.4" r="30.5"/>
	</g>
	<path class="st4" d="M199,466.1h-78.8C96.9,466.1,78,447.3,78,424c0,0,0,0,0,0v-94.4C109.7,382.1,150.7,428.4,199,466.1z"/>
	<path class="st5" d="M69.6,315c-15.1,9-34.6,4-43.5-11.1c-7.9-13.3-5.1-30.4,6.7-40.4l8.9-7.4C49.6,276.3,58.9,296,69.6,315z"/>
	<path class="st2" d="M301.7,398.9h-17.6c-3.3,0-6-2.7-6-6s2.7-6,6-6h17.6c3.3,0,6,2.7,6,6S305,398.9,301.7,398.9z"/>
</g>
</svg>
