<?xml version="1.0" encoding="utf-8"?>
<!-- Generator: Adobe Illustrator 28.2.0, SVG Export Plug-In . SVG Version: 6.00 Build 0)  -->
<svg version="1.1" id="Layer_1" xmlns="http://www.w3.org/2000/svg" xmlns:xlink="http://www.w3.org/1999/xlink" x="0px" y="0px"
	 viewBox="0 0 256 256" style="enable-background:new 0 0 256 256;" xml:space="preserve">
<style type="text/css">
	.st0{fill:#F2AD97;}
	.st1{fill:#E59076;}
	.st2{fill:#EF7816;}
	.st3{fill:#F79219;}
	.st4{fill:#FFA91A;}
	.st5{fill:#8C3F0A;}
	.st6{fill:#F1F2F2;}
	.st7{fill:#58595B;}
	.st8{fill:#414042;}
	.st9{fill:#E63950;}
	.st10{fill:#D10028;}
	.st11{fill:#FFFFFF;}
	.st12{fill:#E6E7E8;}
	.st13{fill:#FCC4AE;}
	.st14{fill:#6875E1;}
	.st15{fill:#7D88E6;}
	.st16{fill:#5261DD;}
	.st17{fill:#3D4ED9;}
</style>
<g>
	<g>
		<g>
			<path class="st0" d="M149.4,123.6c-0.6,0-1.1-0.2-1.7-0.5c-28.6-18.9-34.6-56.7-36.6-87.5c-0.1-1.7,1.1-3.1,2.8-3.2
				c1.6-0.1,3.1,1.1,3.2,2.8c2,29.4,7.6,65.5,34,82.9c1.4,0.9,1.8,2.8,0.8,4.2C151.4,123.2,150.4,123.6,149.4,123.6z"/>
		</g>
	</g>
	<g>
		<g>
			<path class="st1" d="M71.4,159.5c-0.9,0-1.8-0.4-2.4-1.2c-1-1.3-0.7-3.2,0.6-4.2c30.2-22.2,43.7-61,41.2-118.5
				c-0.1-1.7,1.2-3.1,2.9-3.1c1.6-0.1,3.1,1.2,3.1,2.9c1.2,28.7-1.6,53.4-8.4,73.6c-7.2,21.3-19.1,38.1-35.3,50.1
				C72.7,159.3,72,159.5,71.4,159.5L71.4,159.5z"/>
		</g>
	</g>
	<g>
		<g>
			<g>
				<g>
					<g>
						<path class="st2" d="M39.9,197.4c-12.3,0-22.2-10-22.2-22.2c0-4.1,1.1-8.2,3.3-11.7c0.9-1.5,2.9-2,4.5-1c1.5,0.9,2,2.9,1,4.5
							c-1.5,2.5-2.4,5.3-2.4,8.3c0,8.7,7.1,15.8,15.8,15.8s15.8-7.1,15.8-15.8c0-1.8,1.4-3.2,3.2-3.2c1.8,0,3.2,1.4,3.2,3.2
							C62.1,187.4,52.2,197.4,39.9,197.4L39.9,197.4z"/>
					</g>
				</g>
			</g>
			<g>
				<g>
					<g>
						<path class="st3" d="M58.3,148.1h19.7v24.7H58.3V148.1z"/>
					</g>
				</g>
			</g>
			<g>
				<g>
					<g>
						<g>
							<g>
								<path class="st3" d="M68.2,160.4l-19.3,0.2c-14,12-18.3,30.3-0.6,51.3h19.9V160.4z"/>
							</g>
						</g>
					</g>
					<g>
						<g>
							<g>
								<path class="st3" d="M35.2,196h13.7v9.7H28c-0.7,0-1.3-0.6-1.3-1.3C26.7,199.7,30.5,196,35.2,196z"/>
							</g>
						</g>
					</g>
					<g>
						<g>
							<g>
								<path class="st4" d="M41,202.2h13.7v9.7H33.9c-0.7,0-1.3-0.6-1.3-1.3C32.6,206,36.4,202.2,41,202.2z"/>
							</g>
						</g>
					</g>
					<g>
						<g>
							<g>
								<path class="st4" d="M58.5,146.1h-7.4c-15.8,21.8-7.4,49.5,3.7,65.8H65L58.5,146.1z"/>
							</g>
						</g>
					</g>
				</g>
				<g>
					<g>
						<g>
							<g>
								<path class="st3" d="M68.2,160.4l19.3,0.2c14,12,18.3,30.3,0.6,51.3H68.2L68.2,160.4z"/>
							</g>
						</g>
					</g>
					<g>
						<g>
							<g>
								<path class="st3" d="M101.2,196H87.5v9.7h20.9c0.7,0,1.3-0.6,1.3-1.3C109.7,199.7,105.9,196,101.2,196z"/>
							</g>
						</g>
					</g>
					<g>
						<g>
							<g>
								<path class="st4" d="M95.4,202.2H81.6v9.7h20.9c0.7,0,1.3-0.6,1.3-1.3C103.8,206,100,202.2,95.4,202.2z"/>
							</g>
						</g>
					</g>
					<g>
						<g>
							<g>
								<path class="st4" d="M77.9,146.1h7.4c15.8,21.8,7.4,49.5-3.7,65.8H71.4L77.9,146.1z"/>
							</g>
						</g>
					</g>
					<g>
						<g>
							<g>
								<path class="st4" d="M95.4,202.2h-8.2c7.8-16.3,11.1-38.2-1.9-56.1h-7.4L71.4,212h31.1c0.7,0,1.3-0.6,1.3-1.3
									C103.8,206,100,202.2,95.4,202.2z"/>
							</g>
						</g>
					</g>
				</g>
			</g>
			<g>
				<g>
					<g>
						<g>
							<g>
								<g>
									<g>
										<g>
											<g>
												<g>
													<g>
														<path class="st4" d="M57.3,103.1c3.5,4.3,2.8,10.7-1.5,14.2s-10.7,2.8-14.2-1.5c-2.7-3.4-2.3-12.5-1.9-16.5
															c0.1-1,1-1.7,2-1.6C45.6,98.1,54.6,99.7,57.3,103.1z"/>
													</g>
												</g>
											</g>
										</g>
									</g>
									<g>
										<g>
											<g>
												<g>
													<g>
														<path class="st2" d="M53.6,104.9c2.1,2.6,1.7,6.4-0.9,8.5s-6.4,1.7-8.5-0.9c-1.6-2-1.4-7.5-1.2-9.9
															c0.1-0.6,0.6-1,1.2-1C46.6,101.9,52,102.9,53.6,104.9z"/>
													</g>
												</g>
											</g>
										</g>
									</g>
								</g>
							</g>
						</g>
						<g>
							<g>
								<g>
									<g>
										<g>
											<g>
												<g>
													<g>
														<path class="st4" d="M79.1,103.1c-3.5,4.3-2.8,10.7,1.5,14.2s10.7,2.8,14.2-1.5c2.7-3.4,2.3-12.5,1.9-16.5
															c-0.1-1-1-1.7-2-1.6C90.8,98.1,81.8,99.7,79.1,103.1z"/>
													</g>
												</g>
											</g>
										</g>
									</g>
									<g>
										<g>
											<g>
												<g>
													<g>
														<path class="st2" d="M82.8,104.9c-2.1,2.6-1.7,6.4,0.9,8.5s6.4,1.7,8.5-0.9c1.6-2,1.4-7.5,1.2-9.9
															c-0.1-0.6-0.6-1-1.2-1C89.8,101.9,84.4,102.9,82.8,104.9z"/>
													</g>
												</g>
											</g>
										</g>
									</g>
								</g>
							</g>
						</g>
					</g>
					<g>
						<g>
							<circle class="st5" cx="68.2" cy="139.9" r="20.8"/>
						</g>
					</g>
					<g>
						<g>
							<g>
								<g>
									<g>
										<ellipse class="st4" cx="68.1" cy="127.8" rx="26.2" ry="26.2"/>
									</g>
								</g>
							</g>
						</g>
					</g>
					<g>
						<g>
							<g>
								<g>
									<path class="st6" d="M50.2,146.8c4.7,4.4,11,7.2,18,7.2c7.3,0,13.9-3,18.7-7.8c0-14.9-8.7-16.8-18.3-16.8
										C58.7,129.3,50.2,131.2,50.2,146.8z"/>
								</g>
							</g>
						</g>
					</g>
					<g>
						<g>
							<g>
								<g>
									<g>
										<g>
											<path class="st4" d="M71.7,140.1c-1.3,0-2.6-0.6-3.5-1.5c-0.9,0.9-2.1,1.5-3.5,1.5c-2.6,0-4.7-2.1-4.7-4.7
												c0-0.5,0.4-0.9,0.9-0.9s0.9,0.4,0.9,0.9c0,1.7,1.4,3,3,3c1.1,0,2.2-0.6,2.7-1.7c0.1-0.3,0.4-0.5,0.8-0.5
												c0.3,0,0.6,0.2,0.8,0.5c0.5,1,1.6,1.7,2.7,1.7c1.7,0,3-1.4,3-3c0-0.5,0.4-0.9,0.9-0.9s0.9,0.4,0.9,0.9
												C76.4,138,74.3,140.1,71.7,140.1z"/>
										</g>
									</g>
								</g>
							</g>
						</g>
						<g>
							<g>
								<g>
									<g>
										<path class="st4" d="M68.2,138c-0.5,0-0.9-0.4-0.9-0.9V133c0-0.5,0.4-0.9,0.9-0.9s0.9,0.4,0.9,0.9v4.1
											C69.1,137.6,68.7,138,68.2,138z"/>
									</g>
								</g>
							</g>
						</g>
					</g>
					<g>
						<g>
							<g>
								<g>
									<g>
										<path class="st7" d="M72.7,128.8c0,2.5-2,4.5-4.5,4.5c-2.5,0-4.5-2-4.5-4.5c0-2.5,2-1.6,4.5-1.6S72.7,126.3,72.7,128.8z"
											/>
									</g>
								</g>
							</g>
						</g>
					</g>
					<g>
						<g>
							<g>
								<g>
									<g>
										<g>
											<path class="st3" d="M99.3,138.2c-0.1,0-0.3,0-0.4-0.1c-5.5-4.6-13.6-4.7-19.2-0.3c-0.2,0.2-0.6,0.2-0.8-0.1
												c-0.2-0.2-0.2-0.6,0.1-0.8c6-4.7,14.7-4.6,20.7,0.3c0.2,0.2,0.3,0.6,0.1,0.8C99.6,138.1,99.4,138.2,99.3,138.2
												L99.3,138.2z"/>
										</g>
									</g>
								</g>
							</g>
							<g>
								<g>
									<g>
										<g>
											<path class="st3" d="M98.9,145.5c-0.2,0-0.4-0.1-0.5-0.2c-4.1-5.9-11.9-8.1-18.5-5.3c-0.3,0.1-0.6,0-0.7-0.3
												s0-0.6,0.3-0.7c7.1-3,15.4-0.6,19.9,5.7c0.2,0.3,0.1,0.6-0.1,0.8C99.1,145.5,99,145.5,98.9,145.5z"/>
										</g>
									</g>
								</g>
							</g>
							<g>
								<g>
									<g>
										<g>
											<path class="st3" d="M96.6,153.4c-0.2,0-0.5-0.2-0.5-0.4c-2.1-6.8-8.8-11.4-15.9-10.8c-0.3,0-0.6-0.2-0.6-0.5
												c0-0.3,0.2-0.6,0.5-0.6c7.7-0.6,14.8,4.2,17.1,11.6c0.1,0.3-0.1,0.6-0.4,0.7C96.7,153.4,96.6,153.4,96.6,153.4
												L96.6,153.4z"/>
										</g>
									</g>
								</g>
							</g>
						</g>
						<g>
							<g>
								<g>
									<g>
										<g>
											<path class="st3" d="M37.1,138.2c-0.2,0-0.3-0.1-0.4-0.2c-0.2-0.2-0.2-0.6,0.1-0.8c5.9-4.9,14.6-5,20.7-0.3
												c0.2,0.2,0.3,0.6,0.1,0.8s-0.6,0.3-0.8,0.1c-5.6-4.4-13.7-4.3-19.2,0.3C37.4,138.1,37.2,138.2,37.1,138.2L37.1,138.2z"/>
										</g>
									</g>
								</g>
							</g>
							<g>
								<g>
									<g>
										<g>
											<path class="st3" d="M37.5,145.5c-0.1,0-0.2,0-0.3-0.1c-0.3-0.2-0.3-0.5-0.1-0.8c4.4-6.3,12.8-8.7,19.9-5.7
												c0.3,0.1,0.4,0.5,0.3,0.7c-0.1,0.3-0.5,0.4-0.7,0.3c-6.6-2.8-14.4-0.5-18.5,5.3C37.8,145.4,37.7,145.5,37.5,145.5z"/>
										</g>
									</g>
								</g>
							</g>
							<g>
								<g>
									<g>
										<g>
											<path class="st3" d="M39.8,153.4c-0.1,0-0.1,0-0.2,0c-0.3-0.1-0.5-0.4-0.4-0.7c2.3-7.4,9.5-12.2,17.1-11.6
												c0.3,0,0.5,0.3,0.5,0.6c0,0.3-0.3,0.6-0.6,0.5c-7.1-0.6-13.8,3.9-15.9,10.8C40.3,153.2,40.1,153.4,39.8,153.4z"/>
										</g>
									</g>
								</g>
							</g>
						</g>
					</g>
					<g>
						<g>
							<g>
								<g>
									<path class="st3" d="M68.2,101.5c-0.7,0-1.3,0-2,0.1v17c0,1.1,0.9,2,2,2c1.1,0,2-0.9,2-2v-17
										C69.6,101.6,68.9,101.5,68.2,101.5z"/>
								</g>
							</g>
						</g>
					</g>
					<g>
						<g>
							<g>
								<g>
									<g>
										<path class="st3" d="M73.2,102v10.9c0,1.1,0.9,2,2,2c1.1,0,2-0.9,2-2v-9.8C75.9,102.7,74.6,102.3,73.2,102z"/>
									</g>
								</g>
							</g>
						</g>
						<g>
							<g>
								<g>
									<g>
										<path class="st3" d="M59.2,103.1v9.8c0,1.1,0.9,2,2,2c1.1,0,2-0.9,2-2V102C61.8,102.3,60.5,102.7,59.2,103.1z"/>
									</g>
								</g>
							</g>
						</g>
					</g>
				</g>
				<g>
					<g>
						<g>
							<g>
								<g>
									<g>
										<g>
											<g>
												<g>
													<circle class="st7" cx="57.3" cy="121.4" r="3"/>
												</g>
											</g>
										</g>
									</g>
								</g>
							</g>
						</g>
					</g>
					<g>
						<g>
							<g>
								<g>
									<g>
										<g>
											<g>
												<g>
													<circle class="st7" cx="79.1" cy="121.4" r="3"/>
												</g>
											</g>
										</g>
									</g>
								</g>
							</g>
						</g>
					</g>
				</g>
			</g>
		</g>
		<g>
			<g>
				<g>
					<g>
						<path class="st2" d="M208.5,190.3c-16.4,0-29.8-13.4-29.8-29.8c0-1.8,1.4-3.2,3.2-3.2s3.2,1.4,3.2,3.2
							c0,12.8,10.5,23.3,23.3,23.3s23.3-10.4,23.3-23.3c0-4.3-1.2-8.6-3.5-12.3c-0.9-1.5-0.5-3.5,1-4.5c1.5-0.9,3.5-0.5,4.5,1
							c2.9,4.7,4.5,10.1,4.5,15.7C238.3,176.9,225,190.3,208.5,190.3L208.5,190.3z"/>
					</g>
				</g>
			</g>
			<g>
				<g>
					<g>
						<path class="st3" d="M182.8,157.2h-27.6v-34.5h27.6V157.2z"/>
					</g>
				</g>
			</g>
			<g>
				<g>
					<g>
						<g>
							<g>
								<path class="st3" d="M169,139.9l27,0.3c19.5,16.8,25.5,42.4,0.8,71.7H169V139.9z"/>
							</g>
						</g>
					</g>
					<g>
						<g>
							<g>
								<path class="st3" d="M215.2,189.6h-19.2v13.6h29.2c1,0,1.8-0.8,1.8-1.8C227,194.9,221.7,189.6,215.2,189.6L215.2,189.6z"/>
							</g>
						</g>
					</g>
					<g>
						<g>
							<g>
								<path class="st4" d="M207,198.4h-19.2V212H217c1,0,1.8-0.8,1.8-1.8C218.8,203.6,213.5,198.4,207,198.4L207,198.4z"/>
							</g>
						</g>
					</g>
					<g>
						<g>
							<g>
								<path class="st4" d="M182.5,120h10.4c22.1,30.4,10.4,69.1-5.2,92h-14.2L182.5,120z"/>
							</g>
						</g>
					</g>
				</g>
				<g>
					<g>
						<g>
							<g>
								<path class="st3" d="M169,139.9l-27,0.3c-19.5,16.8-25.5,42.4-0.8,71.7H169V139.9z"/>
							</g>
						</g>
					</g>
					<g>
						<g>
							<g>
								<path class="st3" d="M122.9,189.6h19.2v13.6h-29.2c-1,0-1.8-0.8-1.8-1.8C111.1,194.9,116.4,189.6,122.9,189.6L122.9,189.6z"
									/>
							</g>
						</g>
					</g>
					<g>
						<g>
							<g>
								<path class="st4" d="M131.1,198.4h19.2V212h-29.2c-1,0-1.8-0.8-1.8-1.8C119.3,203.6,124.5,198.4,131.1,198.4L131.1,198.4z"
									/>
							</g>
						</g>
					</g>
					<g>
						<g>
							<g>
								<path class="st4" d="M155.5,120h-10.4c-22.1,30.4-10.4,69.1,5.2,92h14.2L155.5,120z"/>
							</g>
						</g>
					</g>
					<g>
						<g>
							<g>
								<path class="st4" d="M131.1,198.4h11.5c-10.8-22.8-15.5-53.4,2.6-78.4h10.4l9,92h-43.5c-1,0-1.8-0.8-1.8-1.8
									C119.3,203.6,124.5,198.4,131.1,198.4L131.1,198.4z"/>
							</g>
						</g>
					</g>
				</g>
			</g>
			<g>
				<g>
					<g>
						<g>
							<g>
								<path class="st2" d="M141.7,56.7c-5.2,2.6-9.4,7.3-11.2,12.9c-2.1,6.2-1.3,13.1-3.3,19.4c-1.1,3.4-2.9,6.5-4,9.9
									c-0.6,1.9-0.9,4.2,0.4,5.8c1.5,1.8,4.1,1.7,6.4,1.4c5-0.7,10.4-2,13.5-5.9c2.8-3.5,3.3-8.3,3.1-12.7s-0.9-9-0.1-13.3
									c1-5.4,4.5-10.3,9.4-13c1-0.6,2.2-1.1,2.9-2c3.3-3.7-3.4-4.4-5.6-4.6C149.3,54.2,145.2,54.9,141.7,56.7z"/>
							</g>
						</g>
					</g>
					<g>
						<g>
							<g>
								<path class="st2" d="M198.8,56.7c5.2,2.6,9.4,7.3,11.2,12.9c2.1,6.2,1.3,13.1,3.3,19.4c1.1,3.4,2.9,6.5,4,9.9
									c0.6,1.9,0.9,4.2-0.4,5.8c-1.5,1.8-4.1,1.7-6.4,1.4c-5-0.7-10.4-2-13.5-5.9c-2.8-3.5-3.3-8.3-3.1-12.7s0.9-9,0.1-13.3
									c-1-5.4-4.5-10.3-9.4-13c-1-0.6-2.2-1.1-2.9-2c-3.3-3.7,3.4-4.4,5.6-4.6C191.2,54.2,195.2,54.9,198.8,56.7z"/>
							</g>
						</g>
					</g>
				</g>
				<g>
					<g>
						<circle class="st5" cx="170.2" cy="118.8" r="26.8"/>
					</g>
				</g>
				<g>
					<g>
						<g>
							<path class="st4" d="M177.6,125.2h-14.8c-12,0-21.8-9.7-21.8-21.8V76.9c0-12,9.7-21.8,21.8-21.8h14.8
								c12,0,21.8,9.7,21.8,21.8v26.6C199.4,115.5,189.6,125.2,177.6,125.2z"/>
						</g>
					</g>
				</g>
				<g>
					<g>
						<g>
							<g>
								<g>
									<path class="st3" d="M177.6,55.1h-0.3c-0.5,2.5-0.8,5.2-0.8,7.9c0,15.6,9.4,29.1,22.9,35V76.9
										C199.4,64.9,189.6,55.1,177.6,55.1z"/>
								</g>
							</g>
						</g>
						<g>
							<g>
								<g>
									<path class="st3" d="M141,76.9V98c13.5-5.9,22.9-19.3,22.9-35c0-2.7-0.3-5.3-0.8-7.9h-0.3C150.8,55.1,141,64.9,141,76.9z"
										/>
								</g>
							</g>
						</g>
					</g>
				</g>
				<g>
					<g>
						<g>
							<path class="st6" d="M183.7,100.3c-3-0.8-5.2-2.8-6-5.4l-2-6.9c-3.1-10.8-3.5-22-1.3-32.9H166c2.2,10.9,1.8,22.1-1.3,32.9
								l-2,6.9c-0.7,2.5-3,4.6-6,5.4c-6.6,1.7-12.2,5.3-12.2,12.3v0.5c0,11.8,11.5,21.4,25.7,21.4s25.7-9.6,25.7-21.4v-0.5
								C195.9,105.5,190.3,102,183.7,100.3L183.7,100.3z"/>
						</g>
					</g>
				</g>
				<g>
					<g>
						<g>
							<g>
								<g>
									<g>
										<g>
											<g>
												
													<ellipse transform="matrix(0.7848 -0.6198 0.6198 0.7848 -18.5753 114.1486)" class="st7" cx="155.1" cy="83.8" rx="4.2" ry="4.2"/>
											</g>
										</g>
									</g>
								</g>
							</g>
							<g>
								<g>
									<g>
										<g>
											<path class="st8" d="M156,79.7c0.1,0.3,0.1,0.7,0.1,1c0,2.3-1.9,4.2-4.2,4.2c-0.3,0-0.7,0-1-0.1c0.4,1.8,2.1,3.2,4.1,3.2
												c2.3,0,4.2-1.9,4.2-4.2C159.2,81.8,157.8,80.2,156,79.7z"/>
										</g>
									</g>
								</g>
							</g>
						</g>
					</g>
					<g>
						<g>
							<g>
								<g>
									<g>
										<g>
											<g>
												
													<ellipse transform="matrix(0.7848 -0.6198 0.6198 0.7848 -12.0207 133.0119)" class="st7" cx="185.5" cy="83.8" rx="4.2" ry="4.2"/>
											</g>
										</g>
									</g>
								</g>
							</g>
							<g>
								<g>
									<g>
										<g>
											<path class="st8" d="M186.4,79.7c0.1,0.3,0.1,0.7,0.1,1c0,2.3-1.9,4.2-4.2,4.2c-0.3,0-0.7,0-1-0.1
												c0.4,1.8,2.1,3.2,4.1,3.2c2.3,0,4.2-1.9,4.2-4.2C189.6,81.8,188.3,80.2,186.4,79.7z"/>
										</g>
									</g>
								</g>
							</g>
						</g>
					</g>
				</g>
				<g>
					<g>
						<g>
							<g>
								<g>
									<circle class="st7" cx="170.2" cy="119.2" r="9.8"/>
								</g>
							</g>
						</g>
					</g>
					<g>
						<g>
							<g>
								<g>
									<path class="st8" d="M176.1,111.3c1.2,1.6,2,3.7,2,5.9c0,5.4-4.4,9.8-9.8,9.8c-2.2,0-4.3-0.7-5.9-2
										c1.8,2.4,4.6,3.9,7.9,3.9c5.4,0,9.8-4.4,9.8-9.8C180.1,115.9,178.5,113.1,176.1,111.3L176.1,111.3z"/>
								</g>
							</g>
						</g>
					</g>
					<g>
						<g>
							<g>
								<g>
									<path class="st9" d="M170.2,131.7c-2.5,0-4.6-2.1-4.6-4.6v-9.6h9.2v9.6C174.8,129.6,172.8,131.7,170.2,131.7z"/>
								</g>
							</g>
						</g>
					</g>
					<g>
						<g>
							<g>
								<path class="st10" d="M169.5,131.6c0.2,0,0.4,0,0.7,0s0.5,0,0.7,0v-14.2h-1.4L169.5,131.6L169.5,131.6z"/>
							</g>
						</g>
					</g>
					<g>
						<g>
							<g>
								<g>
									<path class="st11" d="M178,105.4h-15.5c-4.8,0-8.7,3.9-8.7,8.7c0,4.8,3.9,8.7,8.7,8.7c3.4,0,6.3-1.9,7.8-4.7
										c1.4,2.8,4.4,4.7,7.8,4.7c4.8,0,8.7-3.9,8.7-8.7S182.8,105.4,178,105.4z"/>
								</g>
							</g>
						</g>
					</g>
					<g>
						<g>
							<g>
								<g>
									<path class="st7" d="M177.9,106.2c0,4.2-3.4,7.6-7.6,7.6s-7.6-3.4-7.6-7.6S177.9,102,177.9,106.2L177.9,106.2z"/>
								</g>
							</g>
						</g>
					</g>
					<g>
						<g>
							<g>
								<path class="st8" d="M174.5,103.5c-0.3,3.9-3.6,7-7.6,7c-1.3,0-2.4-0.3-3.5-0.8c1.3,2.5,3.8,4.1,6.8,4.1
									c4.2,0,7.6-3.4,7.6-7.6C177.9,104.9,176.5,104,174.5,103.5z"/>
							</g>
						</g>
					</g>
					<g>
						<g>
							<g>
								<g>
									<g>
										<g>
											<path class="st12" d="M160.6,111.6c0,0.5-0.4,0.9-0.9,0.9s-0.9-0.4-0.9-0.9c0-0.5,0.4-0.9,0.9-0.9
												S160.6,111.1,160.6,111.6z"/>
										</g>
									</g>
								</g>
							</g>
							<g>
								<g>
									<g>
										<g>
											<path class="st12" d="M158.4,114.3c0,0.5-0.4,0.9-0.9,0.9s-0.9-0.4-0.9-0.9s0.4-0.9,0.9-0.9S158.4,113.8,158.4,114.3z"/>
										</g>
									</g>
								</g>
							</g>
							<g>
								<g>
									<g>
										<g>
											<path class="st12" d="M162.6,114.3c0,0.5-0.4,0.9-0.9,0.9c-0.5,0-0.9-0.4-0.9-0.9s0.4-0.9,0.9-0.9
												S162.6,113.8,162.6,114.3z"/>
										</g>
									</g>
								</g>
							</g>
							<g>
								<g>
									<g>
										<g>
											<path class="st12" d="M160.9,117.3c0,0.5-0.4,0.9-0.9,0.9c-0.5,0-0.9-0.4-0.9-0.9s0.4-0.9,0.9-0.9
												S160.9,116.8,160.9,117.3z"/>
										</g>
									</g>
								</g>
							</g>
							<g>
								<g>
									<g>
										<g>
											<path class="st12" d="M165.1,117.3c0,0.5-0.4,0.9-0.9,0.9c-0.5,0-0.9-0.4-0.9-0.9s0.4-0.9,0.9-0.9
												S165.1,116.8,165.1,117.3z"/>
										</g>
									</g>
								</g>
							</g>
						</g>
						<g>
							<g>
								<g>
									<g>
										<g>
											<path class="st12" d="M179.9,111.6c0,0.5,0.4,0.9,0.9,0.9s0.9-0.4,0.9-0.9c0-0.5-0.4-0.9-0.9-0.9
												S179.9,111.1,179.9,111.6z"/>
										</g>
									</g>
								</g>
							</g>
							<g>
								<g>
									<g>
										<g>
											<path class="st12" d="M182.1,114.3c0,0.5,0.4,0.9,0.9,0.9s0.9-0.4,0.9-0.9s-0.4-0.9-0.9-0.9S182.1,113.8,182.1,114.3z"/>
										</g>
									</g>
								</g>
							</g>
							<g>
								<g>
									<g>
										<g>
											<path class="st12" d="M177.9,114.3c0,0.5,0.4,0.9,0.9,0.9c0.5,0,0.9-0.4,0.9-0.9s-0.4-0.9-0.9-0.9
												S177.9,113.8,177.9,114.3z"/>
										</g>
									</g>
								</g>
							</g>
							<g>
								<g>
									<g>
										<g>
											<path class="st12" d="M179.5,117.3c0,0.5,0.4,0.9,0.9,0.9c0.5,0,0.9-0.4,0.9-0.9s-0.4-0.9-0.9-0.9
												S179.5,116.8,179.5,117.3z"/>
										</g>
									</g>
								</g>
							</g>
							<g>
								<g>
									<g>
										<g>
											<path class="st12" d="M175.3,117.3c0,0.5,0.4,0.9,0.9,0.9c0.5,0,0.9-0.4,0.9-0.9s-0.4-0.9-0.9-0.9
												S175.3,116.8,175.3,117.3z"/>
										</g>
									</g>
								</g>
							</g>
						</g>
					</g>
				</g>
			</g>
		</g>
	</g>
	<g>
		<g>
			<g>
				<g>
					<g>
						<path class="st13" d="M152.6,177.1c0.7-1.3,1.1-2.8,1.1-4.4c0-5.3-4.3-9.7-9.7-9.7c-1,0-1.9,0.1-2.8,0.4
							c-0.9-6.7-6.7-11.9-13.6-11.9c-6.9,0-12.6,5.1-13.6,11.7c-0.6-0.1-1.3-0.2-2-0.2c-5.3,0-9.7,4.3-9.7,9.7
							c0,1.6,0.4,3.1,1.1,4.4c-5.1,0.3-9.1,4.5-9.1,9.6c0,5.3,4.3,9.7,9.7,9.7c3.3,0,6.3-1.7,8-4.3c1.7,2.6,4.7,4.3,8,4.3
							s6.3-1.7,8-4.3c1.7,2.6,4.7,4.3,8,4.3c3.3,0,6.3-1.7,8-4.3c1.7,2.6,4.7,4.3,8,4.3c5.3,0,9.7-4.3,9.7-9.7
							C161.7,181.6,157.6,177.4,152.6,177.1L152.6,177.1z"/>
					</g>
				</g>
			</g>
			<g>
				<g>
					<g>
						<path class="st1" d="M123.8,180.7c-0.6,0-1.1-0.4-1.2-1c-0.5-2.5-2.7-4.4-5.4-4.4s-4.9,1.9-5.4,4.4c-0.1,0.6-0.6,1-1.2,1
							c-0.8,0-1.4-0.7-1.2-1.5c0.7-3.7,3.9-6.4,7.8-6.4s7.1,2.8,7.8,6.4C125.2,180,124.6,180.7,123.8,180.7z"/>
					</g>
				</g>
			</g>
			<g>
				<g>
					<g>
						<path class="st1" d="M145.3,180.7c-0.6,0-1.1-0.4-1.2-1c-0.5-2.5-2.7-4.4-5.4-4.4s-4.9,1.9-5.4,4.4c-0.1,0.6-0.6,1-1.2,1
							c-0.8,0-1.4-0.7-1.2-1.5c0.7-3.7,3.9-6.4,7.8-6.4s7.1,2.8,7.8,6.4C146.7,180,146.1,180.7,145.3,180.7L145.3,180.7z"/>
					</g>
				</g>
			</g>
			<g>
				<g>
					<g>
						<path class="st1" d="M134.6,169.8c-0.6,0-1.1-0.4-1.2-1c-0.5-2.5-2.7-4.4-5.4-4.4s-4.9,1.9-5.4,4.4c-0.1,0.6-0.6,1-1.2,1
							c-0.8,0-1.4-0.7-1.2-1.5c0.7-3.7,3.9-6.4,7.8-6.4c3.9,0,7.1,2.8,7.8,6.4C135.9,169.1,135.4,169.8,134.6,169.8L134.6,169.8z"/>
					</g>
				</g>
			</g>
		</g>
		<g>
			<g>
				<g>
					<g>
						<path class="st14" d="M168.9,220.6H87.1c-4.8,0-8.1-4.9-6.3-9.3l9.2-23.1c1-2.6,3.5-4.3,6.3-4.3h63.4c2.8,0,5.3,1.7,6.3,4.3
							l9.2,23.1C177,215.7,173.7,220.6,168.9,220.6L168.9,220.6z"/>
					</g>
				</g>
			</g>
		</g>
		<g>
			<g>
				<path class="st15" d="M88.9,209.1c-0.2,0-0.5-0.1-0.7-0.1c-1-0.4-1.5-1.6-1.1-2.6c0.4-1,1.6-1.5,2.6-1.1c1,0.4,1.5,1.6,1.1,2.6
					C90.4,208.6,89.7,209.1,88.9,209.1z M91.8,201.7c-0.3,0-0.5-0.1-0.7-0.1c-1-0.4-1.5-1.6-1.1-2.6l3.7-9.3
					c0.4-1.1,1.4-1.8,2.6-1.8H156c1.1,0,2,0.9,2,2c0,1.1-0.9,2-2,2H97.1l-3.4,8.5C93.4,201.2,92.7,201.7,91.8,201.7L91.8,201.7z"/>
			</g>
		</g>
		<g>
			<g>
				<path class="st16" d="M175.2,211.2l-9.2-23.1c-1-2.6-3.5-4.3-6.3-4.3h-1.4l6.9,17.4c1.8,4.5-1.5,9.3-6.3,9.3H81l-0.3,0.7
					c-1.8,4.5,1.5,9.3,6.3,9.3h81.8C173.7,220.6,177,215.7,175.2,211.2L175.2,211.2z"/>
			</g>
		</g>
		<g>
			<g>
				<path class="st17" d="M175.2,211.2l-9.2-23.1c-0.8-2-2.6-3.5-4.6-4.1l8.8,22.1c1.8,4.5-1.5,9.3-6.3,9.3H82.1
					c-0.6,0-1.1-0.1-1.6-0.2c0.7,2.9,3.3,5.2,6.6,5.2h81.8C173.7,220.6,177,215.7,175.2,211.2L175.2,211.2z"/>
			</g>
		</g>
	</g>
	<g>
		<g>
			<g>
				<g>
					<g>
						<path class="st11" d="M131.3,214.7l-2.2-0.6c-0.8-0.2-1.6-0.2-2.3,0l-2.2,0.6c-3.1,0.8-6.2-1.7-6.2-5.2
							c0-4.4,4.3-10.2,9.5-10.2s9.5,5.8,9.5,10.2C137.5,213,134.5,215.5,131.3,214.7L131.3,214.7z"/>
					</g>
				</g>
			</g>
		</g>
		<g>
			<g>
				<g>
					<g>
						<g>
							<g>
								<g>
									<g>
										<g>
											<path class="st11" d="M119.5,197.4c1.1,2,1.2,3.9-0.2,4.8c-1.4,0.9-3.8,0.3-4.9-1.7s-0.5-4.6,0.9-5.5
												C116.7,194.1,118.4,195.4,119.5,197.4z"/>
										</g>
									</g>
								</g>
							</g>
							<g>
								<g>
									<g>
										<g>
											<path class="st11" d="M126.7,193.4c0.5,2.2,0.1,4.1-1.5,4.5s-3.7-0.8-4.2-3c-0.5-2.2,0.8-4.5,2.4-5
												C124.9,189.5,126.2,191.2,126.7,193.4z"/>
										</g>
									</g>
								</g>
							</g>
						</g>
					</g>
				</g>
			</g>
			<g>
				<g>
					<g>
						<g>
							<g>
								<g>
									<g>
										<g>
											<path class="st11" d="M136.5,197.4c-1.1,2-1.2,3.9,0.2,4.8c1.4,0.9,3.8,0.3,4.9-1.7s0.5-4.6-0.9-5.5
												C139.3,194.1,137.6,195.4,136.5,197.4z"/>
										</g>
									</g>
								</g>
							</g>
							<g>
								<g>
									<g>
										<g>
											<path class="st11" d="M129.3,193.4c-0.5,2.2-0.1,4.1,1.5,4.5s3.7-0.8,4.2-3c0.5-2.2-0.8-4.5-2.4-5
												C131.1,189.5,129.8,191.2,129.3,193.4z"/>
										</g>
									</g>
								</g>
							</g>
						</g>
					</g>
				</g>
			</g>
		</g>
	</g>
</g>
</svg>
