<?xml version="1.0" encoding="utf-8"?>
<!-- Generator: Adobe Illustrator 28.2.0, SVG Export Plug-In . SVG Version: 6.00 Build 0)  -->
<svg version="1.1" id="Layer_1" xmlns="http://www.w3.org/2000/svg" xmlns:xlink="http://www.w3.org/1999/xlink" x="0px" y="0px"
	 viewBox="0 0 512 512" style="enable-background:new 0 0 512 512;" xml:space="preserve">
<style type="text/css">
	.st0{fill:#3D4ED9;}
	.st1{fill:#F0900C;}
	.st2{fill-rule:evenodd;clip-rule:evenodd;fill:#F0900C;}
</style>
<circle class="st0" cx="256" cy="256" r="256"/>
<g>
	<g>
		<path class="st1" d="M352,405.3H160c-14.9,0-27.7-12.8-27.7-27.7V134.4c2.1-14.9,12.8-27.7,27.7-27.7h189.9
			c14.9,0,27.7,12.8,27.7,27.7v245.3C377.6,392.5,366.9,405.3,352,405.3L352,405.3z M160,134.4v245.3h189.9V134.4L160,134.4z"/>
	</g>
	<g>
		<path class="st1" d="M317.9,202.7h-83.2c-8.5,0-12.8-6.4-12.8-12.8c0-8.5,6.4-12.8,12.8-12.8h81.1c8.5,0,12.8,6.4,12.8,12.8
			C330.7,196.3,324.3,202.7,317.9,202.7L317.9,202.7z"/>
	</g>
	<g>
		<path class="st1" d="M317.9,268.8h-83.2c-8.5,0-12.8-6.4-12.8-12.8c0-6.4,6.4-12.8,12.8-12.8h81.1c8.5,0,12.8,6.4,12.8,12.8
			C328.5,262.4,324.3,268.8,317.9,268.8L317.9,268.8z"/>
	</g>
	<g>
		<path class="st1" d="M317.9,337.1h-83.2c-8.5,0-12.8-6.4-12.8-12.8c0-8.5,6.4-12.8,12.8-12.8h81.1c8.5,0,12.8,6.4,12.8,12.8
			C330.7,332.8,324.3,337.1,317.9,337.1L317.9,337.1z"/>
	</g>
	<g>
		<path class="st2" d="M194.1,202.7c8.5,0,12.8-6.4,12.8-12.8c0-8.5-6.4-12.8-12.8-12.8c-8.5,0-12.8,6.4-12.8,12.8
			C181.3,196.3,187.7,202.7,194.1,202.7z"/>
	</g>
	<g>
		<path class="st2" d="M194.1,268.8c8.5,0,12.8-6.4,12.8-12.8c0-6.4-6.4-12.8-12.8-12.8c-8.5,0-12.8,6.4-12.8,12.8
			C181.3,262.4,187.7,268.8,194.1,268.8z"/>
	</g>
	<g>
		<path class="st2" d="M194.1,337.1c8.5,0,12.8-6.4,12.8-12.8c0-8.5-6.4-12.8-12.8-12.8c-8.5,0-12.8,6.4-12.8,12.8
			C181.3,332.8,187.7,337.1,194.1,337.1z"/>
	</g>
</g>
</svg>
