<?xml version="1.0" encoding="utf-8"?>
<!-- Generator: Adobe Illustrator 28.2.0, SVG Export Plug-In . SVG Version: 6.00 Build 0)  -->
<svg version="1.1" id="Layer_1" xmlns="http://www.w3.org/2000/svg" xmlns:xlink="http://www.w3.org/1999/xlink" x="0px" y="0px"
	 viewBox="0 0 512 512" style="enable-background:new 0 0 512 512;" xml:space="preserve">
<style type="text/css">
	.st0{fill:#3D4ED9;}
	.st1{fill:#F0900C;}
</style>
<g>
	<path class="st0" d="M353.5,48.8c-37.2,0-72.7,15.9-97.5,43.7C208,38.7,125.5,34,71.7,81.9c-41.9,37.3-55.2,97.2-33.2,148.7
		c0,0,3.4,7.6,5.3,11C122.2,382.4,256,463.2,256,463.2s133.8-80.8,212.2-221.5c1.9-3.4,5.3-11,5.3-11
		c28.3-66.3-2.5-143.1-68.8-171.4C388.5,52.4,371.1,48.8,353.5,48.8L353.5,48.8z"/>
	<g>
		<path class="st1" d="M256,218.9c49.3,0,102.1,66.2,80.4,110c-13.1,26.6-40,27.8-59,24.6c-14.2-2.4-28.6-2.4-42.8,0
			c-19.1,3.2-45.9,2-59-24.6C153.9,285,206.7,218.9,256,218.9L256,218.9z"/>
		<g>
			<ellipse class="st1" cx="218.2" cy="167.2" rx="25" ry="30.8"/>
			<ellipse class="st1" cx="293.8" cy="167.2" rx="25" ry="30.8"/>
		</g>
		<g>
			<path class="st1" d="M178.9,213.7c0,14.7-9.7,26.6-21.6,26.6s-21.6-11.9-21.6-26.6s9.7-26.6,21.6-26.6S178.9,199,178.9,213.7
				L178.9,213.7z"/>
			<path class="st1" d="M333.1,213.7c0,14.7,9.7,26.6,21.6,26.6s21.6-11.9,21.6-26.6s-9.7-26.6-21.6-26.6S333.1,199,333.1,213.7z"/>
		</g>
	</g>
</g>
</svg>
