<?xml version="1.0" encoding="utf-8"?>
<!-- Generator: Adobe Illustrator 28.2.0, SVG Export Plug-In . SVG Version: 6.00 Build 0)  -->
<svg version="1.1" id="Layer_1" xmlns="http://www.w3.org/2000/svg" xmlns:xlink="http://www.w3.org/1999/xlink" x="0px" y="0px"
	 viewBox="0 0 512 512" style="enable-background:new 0 0 512 512;" xml:space="preserve">
<style type="text/css">
	.st0{fill:#2130A8;}
	.st1{fill:#3D4ED9;}
	.st2{fill:#EFEFEF;}
	.st3{fill:#DDDDDD;}
	.st4{fill:#FFFFFF;}
	.st5{fill:#3A3A3A;}
	.st6{fill:#333333;}
	.st7{fill:#F5A63A;}
	.st8{fill:#F0900C;}
	.st9{fill:#F49B22;}
</style>
<g id="Layer_11">
	<path class="st0" d="M393.2,60.6l9.1-4c0.8-0.3,0.8-1.4,0-1.7l-9.1-4c-0.2-0.1-0.4-0.3-0.5-0.5l-4-9.1c-0.3-0.8-1.4-0.8-1.7,0
		l-4,9.1c-0.1,0.2-0.3,0.4-0.5,0.5l-9.1,4c-0.8,0.3-0.8,1.4,0,1.7l9.1,4c0.2,0.1,0.4,0.3,0.5,0.5l4,9.1c0.3,0.8,1.4,0.8,1.7,0l4-9.1
		C392.8,60.9,392.9,60.7,393.2,60.6z"/>
	<path class="st1" d="M85.7,105.6l14.9-6.5c1.2-0.5,1.2-2.3,0-2.8l-14.9-6.5c-0.4-0.2-0.6-0.4-0.8-0.8L78.4,74
		c-0.5-1.2-2.3-1.2-2.8,0L69,88.9c-0.2,0.4-0.4,0.6-0.8,0.8l-14.9,6.5c-1.2,0.5-1.2,2.3,0,2.8l14.9,6.5c0.4,0.2,0.6,0.4,0.8,0.8
		l6.5,14.9c0.5,1.2,2.3,1.2,2.8,0l6.5-14.9C85,106,85.3,105.7,85.7,105.6z"/>
	<circle class="st1" cx="145.3" cy="63.6" r="4.6"/>
	<circle class="st1" cx="448.8" cy="109.5" r="11.9"/>
	<path class="st2" d="M435.1,206.1v260.2H76.9V206.1L250.6,81.5c3.1-2.3,7.7-2.3,10.8,0L435.1,206.1z"/>
	<path class="st3" d="M261.4,81.5c-3-2.2-7.8-2.2-10.9,0L77,206v70.7l173.6-124.5c3-2.2,7.8-2.2,10.9,0l98.5,70.6
		c15.7,11.3,25,29.4,25,48.8v194.7H435V276.7V206L261.4,81.5z"/>
	<path class="st4" d="M103,286c-3.3,0-6,2.7-6,6v42c0,3.3,2.7,6,6,6s6-2.7,6-6v-42C109,288.7,106.3,286,103,286z"/>
	<path class="st4" d="M103,349c-3.3,0-6,2.7-6,6v11.3c0,3.3,2.7,6,6,6s6-2.7,6-6V355C109,351.7,106.3,349,103,349z"/>
	<path class="st1" d="M455.8,245.2c-4.9,0-9.8-1.5-14.1-4.5L256,107.4L70.3,240.6c-10.8,7.8-25.9,5.3-33.7-5.6
		c-7.8-10.8-5.3-25.9,5.6-33.7L236.5,61.9c11.5-8.2,27.5-8.2,38.9,0l194.5,139.5c10.8,7.8,13.3,22.9,5.6,33.7
		C470.7,241.7,463.3,245.2,455.8,245.2L455.8,245.2z"/>
	<path class="st5" d="M333.5,466.3H178.5V356.6c0-42.8,34.7-77.5,77.5-77.5s77.5,34.7,77.5,77.5L333.5,466.3L333.5,466.3z"/>
	<path class="st6" d="M333.6,356.5v109.8h-34.7v-88c0-20.3-8.3-38.9-21.6-52.3c-13.4-13.3-31.8-21.6-52.3-21.6
		c-11.7,0-22.6,2.7-32.3,7.5c13.9-20,37.1-33,63.4-33c21.4,0,40.8,8.6,54.9,22.7S333.6,335.1,333.6,356.5L333.6,356.5z"/>
	<path class="st7" d="M178.5,466.3H59.6c-5.5,0-9.9-4.4-9.9-9.9v-31.6c0-5.5,4.4-9.9,9.9-9.9h118.9V466.3z"/>
	<path class="st7" d="M333.5,466.3h118.9c5.5,0,9.9-4.4,9.9-9.9v-31.6c0-5.5-4.4-9.9-9.9-9.9H333.5V466.3z"/>
	<path class="st8" d="M462.2,424.9v31.5c0,5.4-4.3,9.9-9.9,9.9h-40.6c5.4,0,9.9-4.5,9.9-9.9v-31.5c0-5.4-4.5-9.9-9.9-9.9h40.6
		C457.9,414.9,462.2,419.4,462.2,424.9L462.2,424.9z"/>
	<g>
		<path class="st9" d="M256,197.9c-15.5,0-28.7,11.8-34,28.3c-2.9,9.1,2.7,17.7,12.1,19.2c6.5,1.1,13.8,1.8,21.9,1.8
			c8,0,15.4-0.7,21.9-1.8c9.4-1.6,15-10.1,12.1-19.2C284.7,209.6,271.5,197.9,256,197.9z"/>
		<ellipse class="st9" cx="219.7" cy="184.9" rx="11.4" ry="14.5"/>
		<path class="st9" d="M256,184.6c6.3,0,11.4-6.5,11.4-14.5s-5.1-14.5-11.4-14.5s-11.4,6.5-11.4,14.5S249.7,184.6,256,184.6z"/>
		<ellipse class="st9" cx="292.3" cy="184.9" rx="11.4" ry="14.5"/>
	</g>
</g>
</svg>
