<?xml version="1.0" encoding="utf-8"?>
<!-- Generator: Adobe Illustrator 28.2.0, SVG Export Plug-In . SVG Version: 6.00 Build 0)  -->
<svg version="1.1" id="Capa_1" xmlns="http://www.w3.org/2000/svg" xmlns:xlink="http://www.w3.org/1999/xlink" x="0px" y="0px"
	 viewBox="0 0 512 512" style="enable-background:new 0 0 512 512;" xml:space="preserve">
<style type="text/css">
	.st0{fill:#F6B152;}
	.st1{fill:#F0900C;}
	.st2{fill:#F49B22;}
	.st3{fill:#FFFFFF;}
	.st4{fill:#3D4ED9;}
	.st5{fill:#6875E1;}
	.st6{fill:#293CD3;}
	.st7{fill:#5261DD;}
	.st8{fill:#D8810B;}
	.st9{fill:#A76408;}
	.st10{fill:#7D88E6;}
</style>
<g>
	<g>
		<path class="st0" d="M386.8,174.8l-23.3,39.1l35.2,12.8l-4.4-50.1C393.9,172.6,388.8,171.4,386.8,174.8L386.8,174.8z"/>
		<path class="st0" d="M503.2,262.9l-43.1,14.7l21.3,28.6l26.3-37.1C510.1,265.8,506.9,261.6,503.2,262.9L503.2,262.9z"/>
		<path class="st0" d="M263.8,174.8l23.3,39.1l-34.7,8l3.9-45.3C256.6,172.6,261.8,171.4,263.8,174.8L263.8,174.8z"/>
		<path class="st0" d="M147.3,262.9l43.1,14.7l-21.3,28.6L142.7,269C140.5,265.8,143.6,261.6,147.3,262.9L147.3,262.9z"/>
	</g>
	<path class="st1" d="M460,271.9c-15.8-7.6-34.7-3.4-49.3,8.9c0.5-2.1,1-4.2,1.4-6.4c4.9-30.7-11.7-58.9-36.9-62.9
		c-21.4-3.4-42.3,11.6-51.1,35c-8.8-23.4-29.7-38.4-51.1-35c-25.3,4-41.8,32.2-36.9,62.9c0.3,2.2,0.8,4.3,1.4,6.4
		c-14.6-12.4-33.5-16.5-49.3-8.9c-23.1,11-31,42.7-17.6,70.8c12.1,25.4,37.4,39.1,59.3,33.3c-4.4,12.3-6.8,25.2-6.8,37.7
		c0,54.5,45.3,76,101.1,76s101.1-21.5,101.1-76c0-12.5-2.4-25.4-6.8-37.7c21.8,5.7,47.2-8,59.3-33.3
		C491,314.6,483.1,282.9,460,271.9L460,271.9z"/>
	<path class="st2" d="M389.6,407c0,35.4-29.4,49.3-65.6,49.3c-36.3,0-65.6-14-65.6-49.3s29.4-74.4,65.6-74.4S389.6,371.6,389.6,407
		L389.6,407z"/>
	<g>
		<path class="st3" d="M292.1,404.6c-0.9,0-1.9-0.1-2.8-0.4c-5.5-1.5-8.7-7.2-7.2-12.7c4-14.4,13.8-26.9,26.2-33.6
			c5-2.7,11.3-0.8,14,4.2c2.7,5,0.8,11.3-4.2,14c-7.5,4.1-13.6,11.9-16.1,21C300.8,401.6,296.7,404.6,292.1,404.6L292.1,404.6z"/>
	</g>
	<path class="st0" d="M312.8,282.2c2.5,15.9-6,30.5-19.2,32.6s-25.8-9.1-28.3-25.1c-2.5-15.9,6-30.5,19.2-32.6
		C297.6,255,310.3,266.2,312.8,282.2z"/>
	<path class="st0" d="M337.9,282.8c-2.3,14.6,5.5,28,17.6,29.9c12,1.9,23.7-8.4,26-23c2.3-14.6-5.5-28-17.6-29.9
		C351.9,257.9,340.3,268.2,337.9,282.8z"/>
	<path class="st0" d="M236.9,310.6c9.9,8.6,12.2,22.2,5.1,30.4c-7.1,8.1-20.9,7.8-30.8-0.9c-9.9-8.6-12.2-22.2-5.1-30.4
		C213.2,301.6,227,301.9,236.9,310.6z"/>
	<path class="st0" d="M409.1,313.3c-8.8,8.9-10,22-2.6,29.3c7.4,7.2,20.4,5.9,29.2-3c8.8-8.9,10-22,2.6-29.3
		C431,303,417.9,304.3,409.1,313.3z"/>
	<g>
		<path class="st4" d="M333.6,104.8c-0.4,0-0.9,0-1.3-0.1L136.8,80c-5.7-0.7-9.7-5.9-9-11.5c0.7-5.7,5.9-9.7,11.5-9l195.5,24.7
			c5.7,0.7,9.7,5.9,9,11.5C343.2,100.9,338.7,104.8,333.6,104.8L333.6,104.8z"/>
	</g>
	<path class="st5" d="M321.6,103l45.4,18.3c9.1,5.5,20.9-0.2,22.2-10.8l2.3-18c1.3-10.6-8.6-19-18.8-16l-48.5,6.5
		C313.6,84.5,311.7,99,321.6,103z"/>
	<path class="st5" d="M124.6,117L24.2,104.4C9,102.5-1.7,88.6,0.2,73.5l5.1-40.2C7.2,18.1,21,7.4,36.2,9.3L136.6,22
		c15.2,1.9,25.9,15.8,24,30.9L155.6,93C153.6,108.2,139.8,118.9,124.6,117L124.6,117z"/>
	<path class="st6" d="M136.6,22l-24.5-3.1c11.4,1.4,19.5,11.9,18,23.3l-3.3,26.1c-1.4,11.4-11.9,19.5-23.3,18L20.9,75.8
		C9.9,74.4,2,64.7,2.8,53.7H2.7L0.2,73.5c-1.9,15.2,8.8,29,24,30.9L124.6,117c15.2,1.9,29-8.8,30.9-24l5.1-40.2
		C162.5,37.7,151.8,23.9,136.6,22L136.6,22z"/>
	<path class="st5" d="M77.7,367.1H48.9c-8.7,0-15.8-7.1-15.8-15.8v-45.7c0-8.7,7.1-15.8,15.8-15.8h28.7c8.7,0,15.8,7.1,15.8,15.8
		v45.7C93.4,360.1,86.4,367.1,77.7,367.1z"/>
	<path class="st5" d="M2.5,477.2l5-110.2c0.8-17.3,15-30.9,32.3-30.9h44.7c17.3,0,31.6,13.6,32.3,30.9l4.9,110.2
		c0.8,18.4-13.9,33.8-32.3,33.8H34.9C16.4,511,1.7,495.6,2.5,477.2z"/>
	<path class="st4" d="M121.7,477.2L116.9,367c-0.8-17.3-15-30.9-32.3-30.9H60.3c12.2,0,22.2,11,22.8,24.9l3.4,88.6
		c0.6,14.8-9.8,27.1-22.8,27.1H25.3c-10.4,0-19.1-8-21.9-18.8l-0.9,19.3C1.7,495.6,16.4,511,34.9,511h54.6
		C107.9,511,122.6,495.6,121.7,477.2z"/>
	<g>
		<path class="st7" d="M84.6,346.4H39.8c-5.7,0-10.3-4.6-10.3-10.3c0-5.7,4.6-10.3,10.3-10.3h44.7c5.7,0,10.3,4.6,10.3,10.3
			C94.9,341.8,90.3,346.4,84.6,346.4z"/>
	</g>
	<path class="st8" d="M460,271.7c-12.1-5.8-25.9-4.6-38.3,1.7c7.6,12.2,8.4,29.7,0.7,45.7c-10,20.9-30.8,32.1-48.7,27.4
		c3.6,10.2,5.6,20.7,5.6,31c0,44.8-37.2,62.5-83.2,62.5c-31.3,0-59.1-8.1-73.2-27.5c0,0.3,0,1.3,0,1.6c0,54.4,45.6,75.6,101.4,75.6
		s101-22.1,101-76.5c0-12.5-2.5-24.9-6.9-37.3c21.8,5.7,47.2-8.4,59.3-33.7C490.9,314.4,483.1,282.7,460,271.7L460,271.7z"/>
	<path class="st0" d="M379.3,377.7c0,44.8-37.2,62.5-83.2,62.5c-9.3,0-18.4-0.7-26.8-2.2c11.8,12.9,31.9,18.4,54.7,18.4
		c36.3,0,65.6-14,65.6-49.3c0-13-4-26.6-10.8-38.5C379.1,371.6,379.3,374.6,379.3,377.7L379.3,377.7z"/>
	<path class="st9" d="M438.4,310.2c-3.1-3-7.1-4.6-11.5-4.7c-0.9,4.6-2.3,9.2-4.5,13.6c-4.3,9-10.6,16.2-17.8,21.1
		c0.6,0.8,1.2,1.6,1.9,2.2c7.4,7.2,20.4,5.9,29.2-3C444.5,330.6,445.7,317.5,438.4,310.2L438.4,310.2z"/>
	<g>
		<path class="st3" d="M64.7,56.8c-0.5,0-1,0-1.6-0.1l-22.6-3.4c-5.6-0.9-9.5-6.1-8.7-11.8c0.9-5.6,6.1-9.5,11.8-8.7l22.6,3.4
			c5.6,0.9,9.5,6.1,8.7,11.8C74.1,53.1,69.7,56.8,64.7,56.8z"/>
	</g>
	<g>
		<path class="st3" d="M44.9,405.8c-0.1,0-0.2,0-0.4,0c-5.7-0.2-10.2-5-10-10.7l0.7-19.8c0.2-5.7,5-10.2,10.7-10
			c5.7,0.2,10.2,5,10,10.7l-0.7,19.8C55,401.4,50.4,405.8,44.9,405.8z"/>
	</g>
	<ellipse transform="matrix(0.23 -0.9732 0.9732 0.23 211.6827 594.5886)" class="st5" cx="481.6" cy="163.5" rx="18.5" ry="18.5"/>
	<path class="st10" d="M478.1,3.5l8.5,23.9c0.4,1,1.1,1.8,2,2.2l21.2,9.6c3,1.3,3,6.1,0,7.5l-21.2,9.6c-0.9,0.4-1.6,1.2-2,2.2
		l-8.5,23.9c-1.2,3.4-5.4,3.4-6.6,0l-8.5-23.9c-0.4-1-1.1-1.8-2-2.2l-21.2-9.6c-3-1.3-3-6.1,0-7.5l21.2-9.6c0.9-0.4,1.6-1.2,2-2.2
		l8.5-23.9C472.6,0.2,476.9,0.2,478.1,3.5z"/>
	<path class="st10" d="M177.8,152.3l6.3,17.7c0.3,0.8,0.8,1.4,1.5,1.7l15.7,7.1c2.2,1,2.2,4.5,0,5.5l-15.7,7.1
		c-0.7,0.3-1.2,0.9-1.5,1.7l-6.3,17.7c-0.9,2.5-4,2.5-4.9,0l-6.3-17.7c-0.3-0.8-0.8-1.4-1.5-1.7l-15.7-7.1c-2.2-1-2.2-4.5,0-5.5
		l15.7-7.1c0.7-0.3,1.2-0.9,1.5-1.7l6.3-17.7C173.8,149.8,176.9,149.8,177.8,152.3z"/>
	<circle class="st5" cx="369.2" cy="22.5" r="8"/>
</g>
</svg>
