<?xml version="1.0" encoding="utf-8"?>
<!-- Generator: Adobe Illustrator 28.2.0, SVG Export Plug-In . SVG Version: 6.00 Build 0)  -->
<svg version="1.1" id="Layer_1" xmlns="http://www.w3.org/2000/svg" xmlns:xlink="http://www.w3.org/1999/xlink" x="0px" y="0px"
	 viewBox="0 0 512 512" style="enable-background:new 0 0 512 512;" xml:space="preserve">
<style type="text/css">
	.st0{fill:#5261DD;}
	.st1{fill:#F0900C;}
	.st2{fill:#3D4ED9;}
	.st3{fill:#2130A8;}
</style>
<g>
	<path class="st0" d="M267.8,274.4c-4.6,6.5-13.6,8.1-20.1,3.5c-1.4-1-2.6-2.2-3.5-3.5h-5.4V357h34.4v-82.6L267.8,274.4z"/>
	<path class="st1" d="M145.1,394.6c0,13.3,10.8,24,24,24s24-10.8,24-24h125.6c0,13.3,10.8,24,24.1,24s24-10.8,24-24.1
		c0-12.2-9.1-22.4-21.2-23.9c13.2-1.6,22.6-13.5,21.1-26.7c-1.6-13.2-13.5-22.6-26.7-21.1c-12.1,1.4-21.2,11.7-21.2,23.9H193.2
		c0-13.3-10.8-24-24.1-24c-13.3,0-24,10.8-24,24.1c0,12.2,9.1,22.4,21.2,23.9C154.2,372.1,145.1,382.4,145.1,394.6L145.1,394.6z"/>
	<path class="st2" d="M35.7,160.5v76.1c0,35.3,89.5,64.2,203.1,66.9c5.7,0.1,11.4,0.2,17.2,0.2c5.8,0,11.5-0.1,17.2-0.2
		c113.6-2.7,203.1-31.6,203.1-66.9v-76.1h-92.9c31.9,6.9,57.6,16.3,73.8,27.4c-34.4,23.4-111.5,39.7-201.1,39.7
		S89.3,211.3,54.9,187.9c16.2-11,41.8-20.5,73.8-27.4L35.7,160.5z M416.3,229.7c8,0,14.4,6.5,14.4,14.4s-6.5,14.4-14.4,14.4
		c-8,0-14.4-6.5-14.4-14.4C401.9,236.1,408.3,229.7,416.3,229.7z M336.2,245.5c8,0,14.4,6.5,14.4,14.4c0,8-6.5,14.4-14.4,14.4
		c-8,0-14.4-6.5-14.4-14.4C321.7,251.9,328.2,245.5,336.2,245.5C336.1,245.5,336.1,245.5,336.2,245.5z M256,251.7
		c8,0,14.4,6.5,14.4,14.4c0,2.9-0.9,5.8-2.6,8.2c-4.6,6.5-13.6,8.1-20.1,3.5c-1.4-1-2.6-2.2-3.5-3.5c-1.7-2.4-2.6-5.3-2.6-8.2
		C241.6,258.2,248,251.7,256,251.7L256,251.7z M175.8,245.5c8,0,14.4,6.4,14.4,14.4c0,8-6.4,14.4-14.4,14.4c-8,0-14.4-6.4-14.4-14.4
		c0,0,0,0,0,0C161.4,251.9,167.9,245.5,175.8,245.5z M95.7,229.7c8,0,14.4,6.5,14.4,14.4s-6.5,14.4-14.4,14.4
		c-8,0-14.4-6.5-14.4-14.4C81.3,236.1,87.8,229.7,95.7,229.7z"/>
	<path class="st3" d="M128.6,160.5c41.9-8.5,84.6-12.7,127.4-12.4c42.8-0.3,85.5,3.8,127.4,12.4c31.9,6.9,57.6,16.3,73.8,27.4
		c12.3-8.4,19.2-17.6,19.2-27.4c0-37.1-98.6-67.1-220.3-67.1s-220.3,30-220.3,67.1c0,9.8,6.8,19,19.2,27.4
		C71.1,176.8,96.7,167.4,128.6,160.5z"/>
</g>
</svg>
