<?xml version="1.0" encoding="utf-8"?>
<!-- Generator: Adobe Illustrator 28.2.0, SVG Export Plug-In . SVG Version: 6.00 Build 0)  -->
<svg version="1.1" id="Layer_1" xmlns="http://www.w3.org/2000/svg" xmlns:xlink="http://www.w3.org/1999/xlink" x="0px" y="0px"
	 viewBox="0 0 512 512" style="enable-background:new 0 0 512 512;" xml:space="preserve">
<style type="text/css">
	.st0{fill:#3D4ED9;}
	.st1{fill:#2130A8;}
	.st2{fill:#E1F9FF;}
	.st3{fill:#C2E8EF;}
	.st4{fill:#F0900C;}
	.st5{fill:#BF730A;}
</style>
<g>
	<path class="st0" d="M472.8,216.8c0,97.8-65.4,183.4-159.4,209.1l-51,82.5c-1.4,2.2-3.7,3.5-6.3,3.6c0,0-0.1,0-0.1,0
		c-2.6,0-5-1.4-6.4-3.6l-51-82.5c-94-25.7-159.4-111.3-159.4-209.1c0-57.9,22.6-112.4,63.5-153.3c37.4-37.4,86-59.4,138.3-63
		c5-0.3,10-0.5,15-0.5c57.9,0,112.4,22.6,153.3,63.5C450.3,104.5,472.8,158.9,472.8,216.8L472.8,216.8z"/>
	<path class="st1" d="M472.8,216.8c0,97.8-65.4,183.4-159.4,209.1l-51,82.5c-1.4,2.2-3.7,3.5-6.3,3.6l27.3-86
		c94-25.7,159.4-111.3,159.4-209.1c0-57.9-22.6-112.4-63.5-153.3c-37.4-37.4-86-59.4-138.3-63c5-0.3,10-0.5,15-0.5
		c57.9,0,112.4,22.6,153.3,63.5C450.3,104.5,472.8,158.9,472.8,216.8L472.8,216.8z"/>
	<path class="st2" d="M422.7,216.5c0,92.1-74.6,166.7-166.7,166.7c-4.7,0-9.4-0.2-14-0.6c-85.5-7.1-152.7-78.8-152.7-166.1
		S156.5,57.5,242,50.4c4.6-0.4,9.3-0.6,14-0.6C348.1,49.8,422.7,124.4,422.7,216.5L422.7,216.5z"/>
	<path class="st3" d="M422.7,216.5c0,92.1-74.6,166.7-166.7,166.7c-4.7,0-9.4-0.2-14-0.6c85.5-7.1,152.7-78.8,152.7-166.1
		S327.5,57.5,242,50.4c4.6-0.4,9.3-0.6,14-0.6C348.1,49.8,422.7,124.4,422.7,216.5L422.7,216.5z"/>
	<g>
		<g>
			<path class="st4" d="M334.5,279.3c0,1.9-0.1,3.8-0.4,5.7c-1.6,12.1-8.2,22.5-18.7,29.5c-7.6,5-16.4,7.6-25.3,7.6
				c-4,0-8.1-0.5-12-1.6c-0.1,0-0.2-0.1-0.3-0.1c-6.5-1.8-14.1-2.8-21.9-2.8c-7.7,0-15.1,0.9-21.5,2.7c-13.8,3.8-28.8,0.9-40.1-7.7
				c-10.5-8-16.6-20.2-16.6-33.4c0-11.8,5.1-23.1,13.9-31c0.2-0.2,15.1-13.4,26-38.4c4.9-11.7,14.6-20.3,26.4-23.8
				c3.8-1.2,7.9-1.8,12-1.8c16.9,0,32,10.1,38.5,25.7c8.6,19.8,19.6,32.1,24.2,36.7C328.8,254.5,334.5,266.5,334.5,279.3
				L334.5,279.3z"/>
			<path class="st5" d="M334.5,279.3c0,1.9-0.1,3.8-0.4,5.7c-1.6,12.1-8.2,22.5-18.7,29.5c-7.6,5-16.4,7.6-25.3,7.6
				c-4,0-8.1-0.5-12-1.6c4.7-1.3,9.2-3.3,13.3-6c10.5-6.9,17.1-17.4,18.7-29.5c1.9-14.9-3.8-29.3-15.5-38.5
				c-4.5-4.5-15.6-16.8-24.2-36.7c-4.9-11.8-14.7-20.4-26.4-23.9c3.8-1.2,7.9-1.8,12-1.8c16.9,0,32,10.1,38.5,25.7
				c8.6,19.8,19.6,32.1,24.2,36.7C328.8,254.5,334.5,266.5,334.5,279.3L334.5,279.3z"/>
			<g>
				<path class="st4" d="M190.2,183.9c-3.6-6.9-9-12.4-15.2-15.5c-6.8-3.3-13.7-3.5-19.6-0.4c-11.6,6-14.8,22.8-7.2,37.6
					c5.8,11.2,16.2,18,25.9,18c3.1,0,6.1-0.7,8.9-2.1C194.6,215.5,197.8,198.7,190.2,183.9z"/>
				<path class="st4" d="M287,170.3c0.7,0.1,1.4,0.1,2.1,0.1c4,0,8-1.5,11.7-4.3c6.7-5.2,11.6-14.7,12.8-24.7
					c0.9-8-0.3-15.9-3.6-22.2c-3.5-6.9-9.2-11.3-15.5-12.1c-4.7-0.6-9.5,0.8-13.8,4.2c-6.7,5.3-11.7,14.7-12.8,24.8
					c-0.9,8,0.3,15.9,3.6,22.2C275.1,165.2,280.7,169.6,287,170.3L287,170.3z"/>
				<path class="st4" d="M223,170.3c6.7,0,12.8-4,16.8-11c3.7-6.5,5.2-15,4.2-23.5c-1.9-16.3-12.7-29-24.6-29c-6.7,0-12.8,4-16.8,11
					c-3.7,6.4-5.2,15-4.2,23.5C200.3,157.6,211.1,170.3,223,170.3z"/>
				<path class="st4" d="M356.5,168C356.5,168,356.5,168,356.5,168c-11.6-6-27.2,1.2-34.8,15.9c-7.6,14.7-4.4,31.6,7.2,37.6
					c2.8,1.4,5.8,2.1,8.9,2.1c9.7,0,20.1-6.8,25.9-18C371.3,190.9,368.1,174,356.5,168L356.5,168z"/>
			</g>
		</g>
		<path class="st2" d="M273.9,251.5h-10.4V241c0-4.1-3.4-7.5-7.5-7.5s-7.5,3.4-7.5,7.5v10.4H238c-4.1,0-7.5,3.4-7.5,7.5
			c0,4.1,3.4,7.5,7.5,7.5h10.4v10.4c0,4.1,3.4,7.5,7.5,7.5s7.5-3.4,7.5-7.5v-10.4h10.4c4.1,0,7.5-3.4,7.5-7.5
			C281.4,254.8,278,251.5,273.9,251.5L273.9,251.5z"/>
	</g>
</g>
</svg>
