<?xml version="1.0" encoding="utf-8"?>
<!-- Generator: Adobe Illustrator 28.2.0, SVG Export Plug-In . SVG Version: 6.00 Build 0)  -->
<svg version="1.1" id="Layer_1" xmlns="http://www.w3.org/2000/svg" xmlns:xlink="http://www.w3.org/1999/xlink" x="0px" y="0px"
	 viewBox="0 0 32 32" style="enable-background:new 0 0 32 32;" xml:space="preserve">
<style type="text/css">
	.st0{display:none;}
	.st1{fill:#F0900C;}
	.st2{fill:#3D4ED9;}
</style>
<g id="Grid" class="st0">
</g>
<g id="Webinar">
</g>
<g id="Assignment">
</g>
<g id="Article">
</g>
<g id="Audi">
</g>
<g id="Video_Tutorial">
</g>
<g id="Discussion_1_">
</g>
<g id="Resume">
</g>
<g id="Trophy">
</g>
<g id="Encyclopedia">
</g>
<g id="Smartphone">
</g>
<g id="Online_Lesson">
</g>
<g id="Webpage">
</g>
<g id="Search">
</g>
<g id="Registration">
	<path class="st1" d="M24.5,2c-3,0-5.5,2.5-5.5,5.5s2.5,5.5,5.5,5.5S30,10.5,30,7.5S27.5,2,24.5,2z M26.9,7.3l-2.7,2.2
		c-0.2,0.1-0.4,0.2-0.6,0.2c0,0-0.1,0-0.1,0c-0.2,0-0.5-0.1-0.6-0.3l-1.1-1.3c-0.3-0.4-0.2-1,0.2-1.3c0.4-0.3,1-0.2,1.3,0.2l0.5,0.6
		l2-1.6c0.4-0.3,1-0.2,1.3,0.1C27.4,6.4,27.3,6.9,26.9,7.3z"/>
	<path class="st2" d="M29.3,24.7h-2.4V14c-0.8,0.3-1.6,0.4-2.4,0.4c-3.9,0-7-3.1-7-7c0-0.8,0.1-1.5,0.4-2.2H4.4c0,0,0,0,0,0
		c-1.8,0-3.2,1.5-3.2,3.3v1.5c0,0.8,0.6,1.4,1.4,1.4h3.4v16.1c0,0.9,0.4,1.8,1.1,2.4c0.6,0.5,1.4,0.9,2.2,0.9h18.3
		c1.8,0,3.3-1.5,3.3-3.3v-1.5C30.7,25.4,30.1,24.7,29.3,24.7z M5.9,9.7h-3V8.6c0-0.8,0.7-1.5,1.5-1.5c0.8,0,1.5,0.7,1.5,1.5L5.9,9.7
		L5.9,9.7z M11.9,13.1h6.4c0.5,0,0.9,0.4,0.9,0.9s-0.4,0.9-0.9,0.9h-6.4c-0.5,0-0.9-0.4-0.9-0.9S11.4,13.1,11.9,13.1z M11,17.8
		c0-0.5,0.4-0.9,0.9-0.9h4.4c0.5,0,0.9,0.4,0.9,0.9s-0.4,0.9-0.9,0.9h-4.4C11.4,18.7,11,18.3,11,17.8z M28.9,27.6
		c0,0.8-0.7,1.5-1.5,1.5H12.1c0.4-0.8,0.4-1.7,0.4-2.6H26c0,0,0,0,0,0h2.9L28.9,27.6L28.9,27.6z"/>
</g>
<g id="Certificate_1_">
</g>
<g id="Review">
</g>
<g id="Ebook">
</g>
<g id="Online_Class_1_">
</g>
<g id="Schedule">
</g>
<g id="Idea">
</g>
<g id="Login">
</g>
<g id="Science">
</g>
<g id="Time">
</g>
<g id="Business">
</g>
<g id="Projector">
</g>
</svg>
