<?xml version="1.0" encoding="utf-8"?>
<!-- Generator: Adobe Illustrator 28.2.0, SVG Export Plug-In . SVG Version: 6.00 Build 0)  -->
<svg version="1.1" id="Capa_1" xmlns="http://www.w3.org/2000/svg" xmlns:xlink="http://www.w3.org/1999/xlink" x="0px" y="0px"
	 viewBox="0 0 512 512" style="enable-background:new 0 0 512 512;" xml:space="preserve">
<style type="text/css">
	.st0{fill:#3D4ED9;}
	.st1{fill:#F0900C;}
</style>
<g>
	<circle class="st0" cx="157.7" cy="69.3" r="59.3"/>
	<path class="st0" d="M305.5,128.6c32.7,0,59.3-26.6,59.3-59.3S338.2,10,305.5,10c-32.7,0-59.3,26.6-59.3,59.3
		S272.8,128.6,305.5,128.6z"/>
	<path class="st0" d="M402.2,220.9c4.8,0,9.6,0.8,14.2,2.3l10.9,3.6c21.1-9.1,35.9-30.1,35.9-54.5c0-32.7-26.6-59.3-59.3-59.3
		s-59.3,26.6-59.3,59.3c0,23.8,14.1,44.4,34.5,53.8l8.9-3C392.6,221.7,397.4,220.9,402.2,220.9z"/>
	<circle class="st0" cx="59.3" cy="172.3" r="59.3"/>
	<path class="st0" d="M262.5,355.5v-58.1c0-19.4,12.4-36.6,30.8-42.7l30.8-10.3c-7.8-11.5-14-24.2-18.5-38.1
		c-10.4-32-39.8-53.6-73.3-53.6h-1.4c-33.4,0-62.9,21.5-73.3,53.6c-8.9,27.4-24.2,50.3-45.6,68c-17.2,14.3-27.4,35.2-28.1,57.5
		c-0.6,21.7,8.1,42.6,24,57.4c33.7,31.3,77.6,48.6,123.6,48.6c16.1,0,32-2.1,47.3-6.2C268.3,408.2,262.5,382.4,262.5,355.5
		L262.5,355.5z"/>
	<path class="st1" d="M501.7,283.2L407,251.6c-3.1-1-6.4-1-9.5,0l-94.8,31.6c-6.1,2-10.3,7.8-10.3,14.2v58.1
		c0,66.2,42.2,124.8,105,145.7c1.5,0.5,3.1,0.8,4.7,0.8s3.2-0.3,4.7-0.8c62.8-20.9,105-79.5,105-145.7v-58.1
		C512,291,507.9,285.3,501.7,283.2L501.7,283.2z M445.9,372.4l-55.5,33.7c-2.4,1.5-5.1,2.2-7.8,2.2c-4.6,0-9.2-2.1-12.1-6.1
		L354.2,380c-4.9-6.7-3.5-16.1,3.2-21s16.1-3.5,21,3.2l8.2,11.2l43.7-26.6c7.1-4.3,16.3-2.1,20.6,5S453,368.1,445.9,372.4
		L445.9,372.4z"/>
</g>
</svg>
