<?xml version="1.0" encoding="utf-8"?>
<!-- Generator: Adobe Illustrator 28.2.0, SVG Export Plug-In . SVG Version: 6.00 Build 0)  -->
<svg version="1.1" id="Layer_1" xmlns="http://www.w3.org/2000/svg" xmlns:xlink="http://www.w3.org/1999/xlink" x="0px" y="0px"
	 viewBox="0 0 24 25" style="enable-background:new 0 0 24 25;" xml:space="preserve">
<style type="text/css">
	.st0{fill-rule:evenodd;clip-rule:evenodd;fill:#F0900C;}
	.st1{fill-rule:evenodd;clip-rule:evenodd;fill:#3D4ED9;}
</style>
<g>
	<path class="st0" d="M18,2.6c0.4,0,0.8,0.3,0.8,0.8v0.5c0.7,0.1,1.3,0.5,1.8,1l0.5-0.3c0.3-0.2,0.8-0.1,1,0.2
		c0.2,0.3,0.1,0.8-0.2,1L21.4,6c0.2,0.4,0.3,0.9,0.3,1.3c0,0.5-0.1,0.9-0.3,1.3L21.9,9c0.3,0.2,0.4,0.7,0.2,1
		c-0.2,0.3-0.7,0.4-1,0.2l-0.5-0.3c-0.5,0.5-1.1,0.8-1.8,1v0.5c0,0.4-0.3,0.8-0.8,0.8s-0.8-0.3-0.8-0.8v-0.5c-0.7-0.1-1.3-0.5-1.8-1
		l-0.5,0.3c-0.3,0.2-0.8,0.1-1-0.2c-0.2-0.3-0.1-0.8,0.2-1l0.5-0.3c-0.2-0.4-0.3-0.9-0.3-1.3c0-0.5,0.1-0.9,0.3-1.3l-0.5-0.3
		c-0.3-0.2-0.4-0.7-0.2-1c0.2-0.3,0.7-0.4,1-0.2l0.5,0.3c0.5-0.5,1.1-0.8,1.8-1V3.4C17.2,3,17.6,2.6,18,2.6z M18,5.3
		c-0.8,0-1.4,0.4-1.8,0.9c-0.2,0.3-0.4,0.7-0.4,1.2c0,0.4,0.1,0.8,0.4,1.2c0.4,0.6,1,0.9,1.8,0.9c0.8,0,1.4-0.4,1.8-0.9
		c0.2-0.3,0.4-0.7,0.4-1.2c0-0.4-0.1-0.8-0.4-1.2C19.4,5.6,18.8,5.3,18,5.3z"/>
	<path class="st1" d="M6,2.1L6,2.1c0.7,0,1.3,0,1.7,0c0.5,0,0.9,0.1,1.3,0.3c0.6,0.3,1.1,0.8,1.4,1.4c0.2,0.4,0.3,0.8,0.3,1.3
		c0,0.4,0,1,0,1.7v0.1c0,0.7,0,1.2,0,1.7c0,0.5-0.1,0.9-0.3,1.3C10.1,10.5,9.6,11,9,11.3c-0.4,0.2-0.8,0.3-1.3,0.3c-0.4,0-1,0-1.7,0
		H6c-0.7,0-1.2,0-1.7,0c-0.5,0-0.9-0.1-1.3-0.3C2.4,11,1.9,10.5,1.6,9.8C1.4,9.5,1.3,9,1.3,8.6c0-0.4,0-1,0-1.7V6.8
		c0-0.7,0-1.2,0-1.7c0-0.5,0.1-0.9,0.3-1.3C1.9,3.3,2.4,2.8,3,2.5c0.4-0.2,0.8-0.3,1.3-0.3C4.7,2.1,5.3,2.1,6,2.1z M4.4,3.7
		C4,3.7,3.8,3.7,3.7,3.8C3.4,4,3.1,4.2,2.9,4.6C2.9,4.7,2.8,4.9,2.8,5.3c0,0.4,0,0.9,0,1.6c0,0.7,0,1.2,0,1.6c0,0.4,0.1,0.6,0.2,0.7
		c0.2,0.3,0.4,0.6,0.8,0.8C3.8,10,4,10.1,4.4,10.1c0.4,0,0.9,0,1.6,0s1.2,0,1.6,0c0.4,0,0.6-0.1,0.7-0.2c0.3-0.2,0.6-0.4,0.8-0.8
		C9.1,9,9.2,8.8,9.2,8.5c0-0.4,0-0.9,0-1.6c0-0.7,0-1.2,0-1.6c0-0.4-0.1-0.6-0.2-0.7C8.9,4.2,8.6,4,8.3,3.8C8.2,3.7,8,3.7,7.6,3.7
		c-0.4,0-0.9,0-1.6,0S4.8,3.6,4.4,3.7z"/>
	<path class="st1" d="M6,14.1L6,14.1c0.7,0,1.3,0,1.7,0c0.5,0,0.9,0.1,1.3,0.3c0.6,0.3,1.1,0.8,1.4,1.4c0.2,0.4,0.3,0.8,0.3,1.3
		c0,0.4,0,1,0,1.7v0.1c0,0.7,0,1.2,0,1.7c0,0.5-0.1,0.9-0.3,1.3C10.1,22.5,9.6,23,9,23.3c-0.4,0.2-0.8,0.3-1.3,0.3c-0.4,0-1,0-1.7,0
		H6c-0.7,0-1.2,0-1.7,0c-0.5,0-0.9-0.1-1.3-0.3c-0.6-0.3-1.1-0.8-1.4-1.4c-0.2-0.4-0.3-0.8-0.3-1.3c0-0.4,0-1,0-1.7v-0.1
		c0-0.7,0-1.2,0-1.7c0-0.5,0.1-0.9,0.3-1.3c0.3-0.6,0.8-1.1,1.4-1.4c0.4-0.2,0.8-0.3,1.3-0.3C4.7,14.1,5.3,14.1,6,14.1z M4.4,15.7
		c-0.4,0-0.6,0.1-0.7,0.2c-0.3,0.2-0.6,0.4-0.8,0.8c-0.1,0.1-0.1,0.3-0.2,0.7c0,0.4,0,0.9,0,1.6s0,1.2,0,1.6c0,0.4,0.1,0.6,0.2,0.7
		c0.2,0.3,0.4,0.6,0.8,0.8C3.8,22,4,22.1,4.4,22.1c0.4,0,0.9,0,1.6,0s1.2,0,1.6,0c0.4,0,0.6-0.1,0.7-0.2c0.3-0.2,0.6-0.4,0.8-0.8
		c0.1-0.1,0.1-0.3,0.2-0.7c0-0.4,0-0.9,0-1.6s0-1.2,0-1.6c0-0.4-0.1-0.6-0.2-0.7c-0.2-0.3-0.4-0.6-0.8-0.8c-0.1-0.1-0.3-0.1-0.7-0.2
		c-0.4,0-0.9,0-1.6,0S4.8,15.6,4.4,15.7z"/>
	<path class="st1" d="M18,14.1L18,14.1c0.7,0,1.3,0,1.7,0c0.5,0,0.9,0.1,1.3,0.3c0.6,0.3,1.1,0.8,1.4,1.4c0.2,0.4,0.3,0.8,0.3,1.3
		c0,0.4,0,1,0,1.7v0.1c0,0.7,0,1.2,0,1.7c0,0.5-0.1,0.9-0.3,1.3c-0.3,0.6-0.8,1.1-1.4,1.4c-0.4,0.2-0.8,0.3-1.3,0.3
		c-0.4,0-1,0-1.7,0H18c-0.7,0-1.2,0-1.7,0c-0.5,0-0.9-0.1-1.3-0.3c-0.6-0.3-1.1-0.8-1.4-1.4c-0.2-0.4-0.3-0.8-0.3-1.3
		c0-0.4,0-1,0-1.7v-0.1c0-0.7,0-1.2,0-1.7c0-0.5,0.1-0.9,0.3-1.3c0.3-0.6,0.8-1.1,1.4-1.4c0.4-0.2,0.8-0.3,1.3-0.3
		C16.7,14.1,17.3,14.1,18,14.1z M16.4,15.7c-0.4,0-0.6,0.1-0.7,0.2c-0.3,0.2-0.6,0.4-0.8,0.8c-0.1,0.1-0.1,0.3-0.2,0.7
		c0,0.4,0,0.9,0,1.6s0,1.2,0,1.6c0,0.4,0.1,0.6,0.2,0.7c0.2,0.3,0.4,0.6,0.8,0.8c0.1,0.1,0.3,0.1,0.7,0.2c0.4,0,0.9,0,1.6,0
		s1.2,0,1.6,0c0.4,0,0.6-0.1,0.7-0.2c0.3-0.2,0.6-0.4,0.8-0.8c0.1-0.1,0.1-0.3,0.2-0.7c0-0.4,0-0.9,0-1.6s0-1.2,0-1.6
		c0-0.4-0.1-0.6-0.2-0.7c-0.2-0.3-0.4-0.6-0.8-0.8c-0.1-0.1-0.3-0.1-0.7-0.2c-0.4,0-0.9,0-1.6,0S16.8,15.6,16.4,15.7z"/>
</g>
</svg>
