<?xml version="1.0" encoding="utf-8"?>
<!-- Generator: Adobe Illustrator 28.2.0, SVG Export Plug-In . SVG Version: 6.00 Build 0)  -->
<svg version="1.1" id="Capa_1" xmlns="http://www.w3.org/2000/svg" xmlns:xlink="http://www.w3.org/1999/xlink" x="0px" y="0px"
	 viewBox="0 0 512 512" style="enable-background:new 0 0 512 512;" xml:space="preserve">
<style type="text/css">
	.st0{fill:url(#SVGID_1_);}
	.st1{opacity:0.1;}
	.st2{fill:#0000C9;}
	.st3{fill:#3D4ED9;}
	.st4{fill:#FFFFFF;}
	.st5{display:none;fill:none;stroke:#0000C9;stroke-width:10;stroke-linecap:round;stroke-linejoin:round;stroke-miterlimit:10;}
	.st6{fill:#6581FC;}
	.st7{fill:none;stroke:#6581FC;stroke-width:10;stroke-linecap:round;stroke-linejoin:round;stroke-miterlimit:10;}
	.st8{fill:none;stroke:#3D4ED9;stroke-width:10;stroke-linecap:round;stroke-linejoin:round;stroke-miterlimit:10;}
	.st9{fill:#F6B152;stroke:#F0900C;stroke-width:10;stroke-linecap:round;stroke-linejoin:round;stroke-miterlimit:10;}
</style>
<g>
	<g>
		
			<linearGradient id="SVGID_1_" gradientUnits="userSpaceOnUse" x1="87.5767" y1="993.3747" x2="446.1161" y2="634.8353" gradientTransform="matrix(1 0 0 1 0 -566)">
			<stop  offset="0" style="stop-color:#CFDBFF;stop-opacity:0"/>
			<stop  offset="1" style="stop-color:#B4C2FF"/>
		</linearGradient>
		<path class="st0" d="M464.3,223.7C550.9,90.1,395.2,25.3,282.7,3.6C135.6-24.8,22.5,119.6,22.5,271.3
			C22.5,398.5,165.1,543,303,506.1c58.7-15.7,126.6-52.8,146.1-107.6C474,328.5,424.8,284.6,464.3,223.7z"/>
	</g>
	<g>
		<g>
			<g class="st1">
				<path class="st2" d="M401.2,89.1h-193c-16.6,0-30,13.4-30,30v148.4c-18.4-2.7-37.5-0.6-55.5,6.8l-10.3-17.8l4.9-2.8
					c3.7-2.2,5-6.9,2.9-10.7l-3.3-5.8c-2.2-3.7-6.9-5-10.7-2.9l-34.4,19.8c-3.7,2.2-5,6.9-2.9,10.7l3.3,5.8c2.2,3.7,6.9,5,10.7,2.9
					l4.9-2.8l10.3,17.8c-41.4,31.9-53.8,90.4-27,136.9c29.3,50.7,94.1,68.1,144.8,38.8c15.8-9.1,28.3-21.6,37.2-36.1h148
					c16.6,0,30-13.4,30-30v-279C431.2,102.5,417.7,89.1,401.2,89.1z"/>
				<path class="st2" d="M129.8,158h14.4c2.7,0,4.8-2.2,4.8-4.8v-14.4c0-2.7-2.2-4.8-4.8-4.8h-14.4c-2.7,0-4.8,2.2-4.8,4.8v14.4
					C125,155.9,127.1,158,129.8,158z"/>
				<path class="st2" d="M82.9,158h14.4c2.7,0,4.8-2.2,4.8-4.8v-14.4c0-2.7-2.2-4.8-4.8-4.8H82.9c-2.7,0-4.8,2.2-4.8,4.8v14.4
					C78.1,155.9,80.2,158,82.9,158z"/>
				<path class="st2" d="M129.8,204.9h14.4c2.7,0,4.8-2.2,4.8-4.8v-14.4c0-2.7-2.2-4.8-4.8-4.8h-14.4c-2.7,0-4.8,2.2-4.8,4.8v14.4
					C125,202.8,127.1,204.9,129.8,204.9z"/>
				<path class="st2" d="M129.8,111.1h14.4c2.7,0,4.8-2.2,4.8-4.8V91.9c0-2.7-2.2-4.8-4.8-4.8h-14.4c-2.7,0-4.8,2.2-4.8,4.8v14.4
					C125,109,127.1,111.1,129.8,111.1z"/>
			</g>
			<g>
				<g>
					<g>
						<g>
							<path class="st3" d="M401.2,402.1h-193c-16.6,0-30-13.4-30-30v-279c0-16.6,13.4-30,30-30h192.9c16.6,0,30,13.4,30,30v279
								C431.2,388.6,417.7,402.1,401.2,402.1z"/>
							<path class="st4" d="M208.2,382.1c-5.5,0-10-4.5-10-10v-279c0-5.5,4.5-10,10-10h192.9c5.5,0,10,4.5,10,10v279
								c0,5.5-4.5,10-10,10H208.2z"/>
							<path class="st5" d="M254.2,402.1h146.9c16.6,0,30-13.4,30-30V151.8"/>
							<path class="st5" d="M431.2,129V93c0-16.6-13.4-30-30-30h-193c-16.6,0-30,13.4-30,30v146.6"/>
						</g>
						<g>
							<g>
								<path class="st6" d="M234.8,115.5h-6c-1.1,0-2-0.9-2-2v-6c0-1.1,0.9-2,2-2h6c1.1,0,2,0.9,2,2v6
									C236.8,114.6,235.9,115.5,234.8,115.5z"/>
								<path class="st6" d="M254.3,115.5h-6c-1.1,0-2-0.9-2-2v-6c0-1.1,0.9-2,2-2h6c1.1,0,2,0.9,2,2v6
									C256.3,114.6,255.4,115.5,254.3,115.5z"/>
								<path class="st6" d="M273.8,115.5h-6c-1.1,0-2-0.9-2-2v-6c0-1.1,0.9-2,2-2h6c1.1,0,2,0.9,2,2v6
									C275.8,114.6,274.9,115.5,273.8,115.5z"/>
							</g>
							<path class="st6" d="M377.9,163.9H231.5c-2.8,0-5-2.2-5-5v-24c0-2.8,2.2-5,5-5h146.3c2.8,0,5,2.2,5,5v24
								C382.9,161.7,380.6,163.9,377.9,163.9z"/>
							<g>
								<line class="st7" x1="230.7" y1="190.8" x2="330.5" y2="190.8"/>
								<line class="st7" x1="230.7" y1="211.6" x2="378.6" y2="211.6"/>
								<line class="st7" x1="230.7" y1="232.5" x2="378.6" y2="232.5"/>
							</g>
							<g>
								<line class="st7" x1="230.7" y1="264.3" x2="378.6" y2="264.3"/>
								<line class="st7" x1="230.7" y1="285.1" x2="378.6" y2="285.1"/>
								<line class="st7" x1="230.7" y1="306" x2="378.6" y2="306"/>
							</g>
							<path class="st6" d="M336.1,359.6H231.8c-2.8,0-5-2.2-5-5v-17.3c0-2.8,2.2-5,5-5h104.3c2.8,0,5,2.2,5,5v17.3
								C341.1,357.4,338.8,359.6,336.1,359.6z"/>
						</g>
					</g>
					<g>
						<g>
							<g>
								
									<rect x="89.8" y="228.8" transform="matrix(0.866 -0.5 0.5 0.866 -108.2884 84.7822)" class="st6" width="28.5" height="31.3"/>
							</g>
							<g>
								<line class="st8" x1="113" y1="231.4" x2="122.2" y2="247.4"/>
								<line class="st8" x1="97.6" y1="261.7" x2="88.3" y2="245.6"/>
							</g>
							<g>
								<circle class="st4" cx="162.9" cy="346.4" r="106"/>
								<path class="st8" d="M174.2,451.8c14.3-1.5,28.5-6,41.7-13.6c50.7-29.3,68.1-94.1,38.8-144.8s-94.1-68.1-144.8-38.8
									s-68.1,94.1-38.8,144.8c17.6,30.4,47.9,48.8,80.4,52.4"/>
								<circle class="st6" cx="162.9" cy="346.4" r="92.8"/>
								<circle class="st4" cx="162.9" cy="346.4" r="80.4"/>
								<path class="st3" d="M162.4,337l-7.3,4.2l-17.4-30.1c-0.6-1.1-0.3-2.6,0.9-3.2l3.3-1.9c1.1-0.6,2.6-0.3,3.2,0.9L162.4,337z"
									/>
								<path class="st3" d="M172.7,345.6l-4.2-7.3L207,316c1.1-0.6,2.6-0.3,3.2,0.9l1.9,3.3c0.6,1.1,0.3,2.6-0.9,3.2L172.7,345.6z"
									/>
								<circle class="st6" cx="162.9" cy="346.4" r="12.1"/>
								<g>
									<g>
										<g>
											<path class="st6" d="M129.9,295.4l5.4-3.1c1-0.6,1.3-1.8,0.8-2.8l-3.1-5.4c-0.6-1-1.8-1.3-2.8-0.8l-5.4,3.1
												c-1,0.6-1.3,1.8-0.8,2.8l3.1,5.4C127.6,295.6,128.9,295.9,129.9,295.4z"/>
										</g>
									</g>
									<g>
										<g>
											<path class="st6" d="M195.8,409.5l5.4-3.1c1-0.6,1.3-1.8,0.8-2.8l-3.1-5.4c-0.6-1-1.8-1.3-2.8-0.8l-5.4,3.1
												c-1,0.6-1.3,1.8-0.8,2.8l3.1,5.4C193.5,409.7,194.8,410.1,195.8,409.5z"/>
										</g>
									</g>
								</g>
								<g>
									<g>
										<g>
											<path class="st6" d="M180.1,276.6l-5.4,3.1c-1,0.6-1.3,1.8-0.8,2.8l3.1,5.4c0.6,1,1.8,1.3,2.8,0.8l5.4-3.1
												c1-0.6,1.3-1.8,0.8-2.8l-3.1-5.4C182.4,276.4,181.1,276.1,180.1,276.6z"/>
										</g>
									</g>
									<g>
										<g>
											<path class="st6" d="M146,404l-5.4,3.1c-1,0.6-1.3,1.8-0.8,2.8l3.1,5.4c0.6,1,1.8,1.3,2.8,0.8l5.4-3.1
												c1-0.6,1.3-1.8,0.8-2.8l-3.1-5.4C148.2,403.7,147,403.4,146,404z"/>
										</g>
									</g>
								</g>
								<g>
									<g>
										<g>
											<path class="st6" d="M213.9,313.3l3.1,5.4c0.6,1,1.8,1.3,2.8,0.8l5.4-3.1c1-0.6,1.3-1.8,0.8-2.8l-3.1-5.4
												c-0.6-1-1.8-1.3-2.8-0.8l-5.4,3.1C213.7,311,213.4,312.3,213.9,313.3z"/>
										</g>
									</g>
									<g>
										<g>
											<path class="st6" d="M99.8,379.2l3.1,5.4c0.6,1,1.8,1.3,2.8,0.8l5.4-3.1c1-0.6,1.3-1.8,0.8-2.8l-3.1-5.4
												c-0.6-1-1.8-1.3-2.8-0.8l-5.4,3.1C99.6,377,99.2,378.2,99.8,379.2z"/>
										</g>
									</g>
								</g>
								<g>
									<g>
										<g>
											<path class="st6" d="M226.7,357.4l-5.4,3.1c-1,0.6-1.3,1.8-0.8,2.8l3.1,5.4c0.6,1,1.8,1.3,2.8,0.8l5.4-3.1
												c1-0.6,1.3-1.8,0.8-2.8l-3.1-5.4C229,357.1,227.7,356.8,226.7,357.4z"/>
										</g>
									</g>
									<g>
										<g>
											<path class="st6" d="M99.4,323.3l-5.4,3.1c-1,0.6-1.3,1.8-0.8,2.8l3.1,5.4c0.6,1,1.8,1.3,2.8,0.8l5.4-3.1
												c1-0.6,1.3-1.8,0.8-2.8l-3.1-5.4C101.6,323,100.4,322.7,99.4,323.3z"/>
										</g>
									</g>
								</g>
							</g>
						</g>
						<g>
							<path class="st4" d="M117.3,227.6l-34.4,19.8c-3.7,2.2-8.5,0.9-10.7-2.9l-3.3-5.8c-2.2-3.7-0.9-8.5,2.9-10.7l34.4-19.8
								c3.7-2.2,8.5-0.9,10.7,2.9l3.3,5.8C122.3,220.7,121,225.5,117.3,227.6z"/>
							<path class="st8" d="M117.3,227.6l-34.4,19.8c-3.7,2.2-8.5,0.9-10.7-2.9l-3.3-5.8c-2.2-3.7-0.9-8.5,2.9-10.7l34.4-19.8
								c3.7-2.2,8.5-0.9,10.7,2.9l3.3,5.8C122.3,220.7,121,225.5,117.3,227.6z"/>
						</g>
					</g>
				</g>
				<g>
					<g>
						<g>
							<path class="st6" d="M129.8,110h14.4c2.7,0,4.8,2.2,4.8,4.8v14.4c0,2.7-2.2,4.8-4.8,4.8h-14.4c-2.7,0-4.8-2.2-4.8-4.8v-14.4
								C125,112.1,127.1,110,129.8,110z"/>
							<path class="st6" d="M82.9,110h14.4c2.7,0,4.8,2.2,4.8,4.8v14.4c0,2.7-2.2,4.8-4.8,4.8H82.9c-2.7,0-4.8-2.2-4.8-4.8v-14.4
								C78.1,112.1,80.2,110,82.9,110z"/>
						</g>
						<g>
							<path class="st9" d="M129.8,110h14.4c2.7,0,4.8,2.2,4.8,4.8v14.4c0,2.7-2.2,4.8-4.8,4.8h-14.4c-2.7,0-4.8-2.2-4.8-4.8v-14.4
								C125,112.1,127.1,110,129.8,110z"/>
							<path class="st9" d="M82.9,110h14.4c2.7,0,4.8,2.2,4.8,4.8v14.4c0,2.7-2.2,4.8-4.8,4.8H82.9c-2.7,0-4.8-2.2-4.8-4.8v-14.4
								C78.1,112.1,80.2,110,82.9,110z"/>
						</g>
					</g>
					<g>
						<g>
							<path class="st6" d="M149,161.7v14.4c0,2.7-2.2,4.8-4.8,4.8h-14.4c-2.7,0-4.8-2.2-4.8-4.8v-14.4c0-2.7,2.2-4.8,4.8-4.8h14.4
								C146.9,156.9,149,159,149,161.7z"/>
							<path class="st6" d="M149,67.9v14.4c0,2.7-2.2,4.8-4.8,4.8h-14.4c-2.7,0-4.8-2.2-4.8-4.8V67.9c0-2.7,2.2-4.8,4.8-4.8h14.4
								C146.9,63.1,149,65.2,149,67.9z"/>
						</g>
						<g>
							<path class="st9" d="M149,161.7v14.4c0,2.7-2.2,4.8-4.8,4.8h-14.4c-2.7,0-4.8-2.2-4.8-4.8v-14.4c0-2.7,2.2-4.8,4.8-4.8h14.4
								C146.9,156.9,149,159,149,161.7z"/>
							<path class="st9" d="M149,67.9v14.4c0,2.7-2.2,4.8-4.8,4.8h-14.4c-2.7,0-4.8-2.2-4.8-4.8V67.9c0-2.7,2.2-4.8,4.8-4.8h14.4
								C146.9,63.1,149,65.2,149,67.9z"/>
						</g>
					</g>
				</g>
			</g>
		</g>
		<path class="st7" d="M338.8,454.9h-10c-2.8,0-5-2.2-5-5v-10c0-2.8,2.2-5,5-5h10c2.8,0,5,2.2,5,5v10
			C343.8,452.7,341.6,454.9,338.8,454.9z"/>
		<path class="st7" d="M49.3,276.1h-10c-2.8,0-5-2.2-5-5v-10c0-2.8,2.2-5,5-5h10c2.8,0,5,2.2,5,5v10C54.3,273.9,52,276.1,49.3,276.1
			z"/>
		<g>
			<g>
				<path class="st7" d="M265.8,447.7h2c4.4,0,8-3.6,8-8v-2v2c0,4.4,3.6,8,8,8h2h-2c-4.4,0-8,3.6-8,8v2v-2c0-4.4-3.6-8-8-8H265.8z"
					/>
			</g>
		</g>
		<g>
			<g>
				<path class="st7" d="M46.9,180.9h2c4.4,0,8-3.6,8-8v-2v2c0,4.4,3.6,8,8,8h2h-2c-4.4,0-8,3.6-8,8v2v-2c0-4.4-3.6-8-8-8H46.9z"/>
			</g>
		</g>
		<g>
			<g>
				<path class="st7" d="M431.2,43.6h2c4.4,0,8-3.6,8-8v-2v2c0,4.4,3.6,8,8,8h2h-2c-4.4,0-8,3.6-8,8v2v-2c0-4.4-3.6-8-8-8H431.2z"/>
			</g>
		</g>
	</g>
</g>
</svg>
