<?xml version="1.0" encoding="utf-8"?>
<!-- Generator: Adobe Illustrator 28.2.0, SVG Export Plug-In . SVG Version: 6.00 Build 0)  -->
<svg version="1.1" id="Layer_1" xmlns="http://www.w3.org/2000/svg" xmlns:xlink="http://www.w3.org/1999/xlink" x="0px" y="0px"
	 viewBox="0 0 512 512" style="enable-background:new 0 0 512 512;" xml:space="preserve">
<style type="text/css">
	.st0{fill:#57B3FE;}
	.st1{enable-background:new    ;}
	.st2{fill:#497BFE;}
	.st3{fill:#B0B8CF;}
	.st4{fill:#F8F9FE;}
	.st5{fill:#FFFFFF;}
	.st6{fill:#F0900C;}
	.st7{fill:#C9CEE2;}
	.st8{fill:#F6B152;}
	.st9{fill:#6BB4F9;}
	.st10{fill:#5094FF;}
</style>
<g id="_x31_3">
	<g>
		<g>
			<g>
				<path class="st0" d="M295.9,119.3l33.1,17.4c15.8,8.3,26.2,27,27.4,54.1c1.7,37.3-14.2,80.7-39.2,113.9l-33.1-17.4
					c25-33.2,40.9-76.6,39.2-113.9C322.1,146.3,311.7,127.6,295.9,119.3z"/>
			</g>
		</g>
		<g>
			<g>
				<g class="st1">
					<g>
						<path class="st2" d="M372.9,248.9l27.3,27.8L373,328.8l-38.6-6c-4.4,6.1-9.1,11.9-13.9,17.4l-33.1-17.4l-3.2-35.6l33.1,17.4
							c25-33.1,41-76.6,39.2-113.9c-2.5-54.6-42-75-88.4-45.4c-46.4,29.5-81.9,97.6-79.4,152.2c0.8,17.7,5.5,31.6,13,41.5
							c0.3,0,0.6,0.1,1,0.1l33,17.4l0.2,37.4c-5.1,0.8-9.9,1.1-14.7,0.8l-35.9,53.5L155,432.7l-33.1-17.4l23.2-59.8l-24.4,9.9
							L87.5,348l-2.2-47.9l43.8-38.2c2-13.1,5.4-26.6,10-39.9l-27.2-27.9L139,142l38.6,6.1c8.3-11.3,17.4-21.8,27-31.2l6.2-57.5
							l40.6-25.8L284.6,51l5.9,25.2h0.2l36-53.5L357,38.2l33.1,17.4l-23.2,59.8l24.4-9.9l33.1,17.4l2.2,47.8l-43.8,38.2
							C380.9,222.2,377.4,235.6,372.9,248.9z"/>
					</g>
					<g>
						<path class="st3" d="M314.1,422.9c0.1,0.8,0.1,1.5,0.2,2.3c1,21-12.8,47.4-30.7,58.8c-9.2,5.9-17.7,6.6-23.9,3.2l-32.8-17.2
							c-6.7-3.5-10.7-11.6-10.7-23.4l-0.5-149.8l-11.6-6.2c-9.9-5.1-16.3-16.7-17.1-33.6c-1-20.3,6.6-43.6,18.9-62.9l33.1,17.4
							l1.1,24l29.9-43.5l-1.7-37.6c2.3,0.5,4.4,1.3,6.4,2.3l33.1,17.4c-0.2-0.1-0.4-0.1-0.7-0.2c10.2,5,17,16.6,17.8,33.9
							c1.1,22.9-8.6,49.5-23.9,70L314.1,422.9z"/>
					</g>
					<g>
						<g>
							<path class="st2" d="M320.4,340.2l-33.1-17.4l-3.2-35.5l33.1,17.4L320.4,340.2z"/>
						</g>
					</g>
					<g>
						<g>
							<path class="st2" d="M379.8,141l-33.1-17.4l44.7-18.1l33.1,17.4L379.8,141z"/>
						</g>
					</g>
					<g>
						<g>
							<path class="st0" d="M216,351.7l-33.1-17.4c5.9,3.1,12.5,4.7,19.7,4.9l33.1,17.4C228.6,356.4,221.9,354.7,216,351.7z"/>
						</g>
					</g>
					<g>
						<g>
							<path class="st0" d="M359.8,40.1l-33.1-17.4L357,38.3l33.1,17.4L359.8,40.1z"/>
						</g>
					</g>
					<g>
						<g>
							<path class="st2" d="M155.1,432.6l-33.1-17.4l23.2-60l33.1,17.4L155.1,432.6z"/>
						</g>
					</g>
					<g>
						<g>
							<path class="st2" d="M323.8,93.6l-33.1-17.4l36-53.5l33.1,17.4L323.8,93.6z"/>
						</g>
					</g>
					<g>
						<g>
							<g>
								<path class="st4" d="M268.2,468.4L235.1,451c3.8,2,9,1.5,14.5-2l33.1,17.4C277.2,469.9,272,470.4,268.2,468.4z"/>
							</g>
						</g>
						<g>
							<g>
								<path class="st5" d="M261.9,399.8l33.1,17.4c3.8,2,6.3,6.4,6.6,12.9c0.6,13-7.9,29.3-18.9,36.3L249.6,449
									c11-7,19.5-23.3,18.9-36.3C268.2,406.3,265.7,401.8,261.9,399.8z"/>
							</g>
						</g>
						<g>
							<g>
								<path class="st4" d="M301.6,430.1l-33.1-17.4c-0.3-6.4-2.8-10.9-6.6-12.9l33.1,17.4C298.8,419.2,301.3,423.7,301.6,430.1z"
									/>
							</g>
						</g>
						<g>
							<g>
								<path class="st6" d="M259.9,487.4L226.8,470c-6.6-3.5-10.8-11.6-10.7-23.3l33.1,17.4C249.2,475.8,253.3,484,259.9,487.4z"/>
							</g>
						</g>
						<g>
							<g>
								<path class="st6" d="M249.2,464.1l-33.1-17.4l-0.5-153l33.1,17.4L249.2,464.1z"/>
							</g>
						</g>
						<g>
							<g>
								<path class="st6" d="M273,253.2l-33.1-17.4l30.1-43.7l33.1,17.4L273,253.2z"/>
							</g>
						</g>
						<g>
							<g>
								<path class="st7" d="M274.6,156.8l33.1,17.4c-2-1-4.1-1.8-6.4-2.3l-33.1-17.4C270.5,155,272.6,155.7,274.6,156.8z"/>
							</g>
						</g>
						<g>
							<g>
								<path class="st8" d="M303.1,209.5l-33.1-17.4l-1.7-37.6l33.1,17.4L303.1,209.5z"/>
							</g>
						</g>
						<g>
							<g>
								<path class="st8" d="M240.7,249.1l-33.1-17.4l32.3,4l33.1,17.4L240.7,249.1z"/>
							</g>
						</g>
						<g>
							<g>
								<path class="st8" d="M237.1,308.1L204,290.7c-9.8-5.2-16.3-16.7-17.1-33.6c-0.9-20.3,6.6-43.6,18.9-63l33.1,17.4
									c-12.3,19.4-19.8,42.6-18.9,63C220.8,291.4,227.3,302.9,237.1,308.1z"/>
							</g>
						</g>
						<g>
							<g>
								<path class="st6" d="M324.8,207.9c1,22.9-8.6,49.5-23.8,70.1l13.1,145c0.1,0.8,0.1,1.6,0.2,2.4c1,21-12.7,47.4-30.7,58.8
									c-18.7,11.9-34.4,2.7-34.3-20l-0.5-153c-16.2-0.7-27.7-13.8-28.7-36.7c-0.9-20.3,6.6-43.6,18.9-63l1.7,37.6l32.3,4
									l30.1-43.7l-1.7-37.6C314.7,174.9,323.9,187.5,324.8,207.9z M282.7,466.4c11-7,19.5-23.3,18.9-36.3
									c-0.6-12.9-10-17.8-21-10.8c-11,7-19.5,23.3-18.9,36.2C262.2,468.5,271.7,473.4,282.7,466.4"/>
							</g>
						</g>
					</g>
					<g>
						<g>
							<path class="st9" d="M178.3,372.6l-33.1-17.4c-5.5-6.9-9.9-15.4-13-25.3l33.1,17.4C168.4,357.3,172.8,365.7,178.3,372.6z"/>
						</g>
					</g>
					<g>
						<g>
							<path class="st9" d="M295.5,97.6l-33.1-17.4c10-3.2,19.5-4.5,28.3-4l33.1,17.4C315,93.1,305.5,94.4,295.5,97.6z"/>
						</g>
					</g>
					<g>
						<g>
							<path class="st9" d="M162.2,279.4L129.1,262c2-13.2,5.4-26.6,10-39.9l33.1,17.4C167.6,252.8,164.2,266.2,162.2,279.4z"/>
						</g>
					</g>
					<g>
						<g>
							<path class="st9" d="M210.8,165.5l-33.1-17.4c8.3-11.4,17.4-21.9,27.1-31.2l33.1,17.4C228.2,143.6,219.1,154.1,210.8,165.5z"
								/>
						</g>
					</g>
					<g>
						<g>
							<path class="st2" d="M118.4,317.6l-33.1-17.4l43.8-38.2l33.1,17.4L118.4,317.6z"/>
						</g>
					</g>
					<g>
						<g>
							<path class="st0" d="M120.6,365.4L87.5,348l-2.2-47.8l33.1,17.4L120.6,365.4z"/>
						</g>
					</g>
					<g>
						<g>
							<path class="st0" d="M244,76.8l-33.1-17.4l40.6-25.8L284.6,51L244,76.8z"/>
						</g>
					</g>
					<g>
						<g>
							<path class="st2" d="M172.2,239.5l-33.1-17.4l-27.2-27.9l33.1,17.4L172.2,239.5z"/>
						</g>
					</g>
					<g>
						<g>
							<path class="st2" d="M172.1,159.4L139,142l38.7,6.1l33.1,17.4L172.1,159.4z"/>
						</g>
					</g>
					<g>
						<g>
							<path class="st0" d="M145,211.5l-33.1-17.4L139,142l33.1,17.4L145,211.5z"/>
						</g>
					</g>
					<g>
						<g>
							<path class="st10" d="M284.6,51l10.9,46.6c10-3.2,19.5-4.5,28.3-4l36-53.5l30.3,15.6l-23.3,60c5.5,6.9,9.9,15.4,13,25.4
								l44.7-18.1l2.2,47.8l-43.7,38.1c-2,13.2-5.5,26.7-10,40l27.3,27.8L373,328.9l-38.7-6c-4.4,6-9.1,11.8-13.9,17.3l-3.2-35.5
								c25-33.2,40.9-76.6,39.2-113.9c-2.5-54.6-42-75-88.4-45.5c-46.4,29.5-81.9,97.6-79.4,152.2c1.7,37.3,20.6,58.5,47.1,59
								l0.1,37.4c-5,0.8-9.9,1.1-14.6,0.8l-35.9,53.4l-30.3-15.6l23.2-60c-5.5-6.9-9.9-15.4-13-25.3l-44.7,18.1l-2.2-47.8l43.8-38.2
								c2-13.2,5.4-26.6,10-39.9L145,211.5l27.2-52.1l38.7,6.1c8.3-11.4,17.4-21.9,27.1-31.2l6.2-57.5L284.6,51z"/>
						</g>
					</g>
				</g>
			</g>
			<g>
				<path class="st5" d="M183.9,242.9c-4.7,2-9,4.8-12.6,8.7c-3.4,3.7-6,8.2-7.3,13.3c-0.6,1.6-2.6,1.6-3.3,0.1
					c-3.7-9.7-11.9-17.2-21.9-20.1c-1.6-0.4-1.6-2.6-0.1-3.1c5-2,9.2-5,12.6-8.7c3.6-3.7,6.2-8.4,7.5-13.3c0.6-1.8,2.6-1.9,3.3-0.1
					c1.7,4.7,4.8,9.2,8.4,12.6c3.9,3.3,8.4,6,13.3,7.5C185.5,240.2,185.6,242.3,183.9,242.9z"/>
			</g>
		</g>
	</g>
	<g>
		<g>
			<path class="st2" d="M237.9,134.3l-33.1-17.4l6.2-57.5L244,76.8L237.9,134.3z"/>
		</g>
	</g>
</g>
</svg>
